<svg width="280" height="268" viewBox="0 0 280 268" fill="none" xmlns="http://www.w3.org/2000/svg">
<path d="M120.52 153.177C113.533 146.977 101.144 149.924 93.2018 152.423C88.2265 153.986 83.4236 156.094 78.7404 158.369C74.049 160.649 69.309 163.006 65.1105 166.125C57.7358 171.606 52.6266 179.717 54.164 189.166C55.0017 194.308 57.4153 198.981 59.1373 203.851C61.1108 209.437 61.4455 214.812 59.7397 220.527C58.2773 225.425 54.4013 230.372 55.525 235.707C56.4215 239.97 59.4842 242.956 63.3622 244.757C69.1042 247.426 77.4342 246.6 82.9693 243.767C90.5204 239.903 96.3537 232.474 98.2379 224.194C99.3697 219.225 98.9722 214.12 99.3677 209.078C99.7733 203.922 101.775 199.484 105.071 195.529C110.977 188.44 119.19 183.136 123.329 174.652C126.642 167.858 126.558 158.536 120.52 153.177Z" fill="url(#paint0_linear_464_9112)"/>
<path d="M124.359 123.98C123.627 115.078 120.501 106.602 117.021 98.4508C113.49 90.1836 109.352 82.1761 104.653 74.5113C100.596 67.8952 95.9636 61.0214 89.0756 57.0724C83.5344 53.8942 76.2976 53.1802 70.5394 56.2469C67.6208 57.8026 65.4729 60.342 64.3127 63.429C62.9517 67.0494 63.0612 71.0369 63.0085 74.8419C62.9781 76.929 62.9314 79.0364 62.5501 81.095C62.1567 83.2065 61.4062 85.2205 60.5483 87.1818C58.8587 91.0497 56.9806 94.7878 56.3883 99.0167C55.2951 106.832 57.7959 114.874 63.2783 120.571C68.9797 126.495 76.6931 128.791 84.7615 128.731C93.1058 128.666 101.728 126.828 109.875 129.473C111.81 130.102 113.613 131.012 115.22 132.262C115.244 132.28 115.268 132.284 115.293 132.298C116.652 133.884 119.213 134.168 121.134 133.209C124.442 131.556 124.623 127.177 124.359 123.98Z" fill="url(#paint1_linear_464_9112)"/>
<path d="M51.8714 31.628C45.9063 24.0809 34.9477 21.5922 26.6825 26.9833C22.3259 29.8249 19.6201 34.4047 19.2997 39.6011C19.1658 41.7875 19.4883 44.0024 20.2002 46.0712C20.8472 50.9187 22.985 55.5026 26.8367 58.7376C33.7652 64.5526 45.0788 65.084 51.5225 58.2285C58.3861 50.9248 57.8872 39.2401 51.8714 31.628Z" fill="url(#paint2_linear_464_9112)"/>
<path d="M41.7832 189.321C41.0145 187.059 39.7124 185.01 37.672 183.702C35.6336 182.398 33.1611 182.175 30.9868 183.272C29.78 183.881 28.7598 184.826 27.8005 185.763C26.7823 186.755 25.8371 187.826 25.255 189.138C24.7277 190.327 24.464 191.641 24.4579 192.955C23.8535 196.21 24.9102 199.673 27.628 201.833C31.0091 204.522 35.8506 204.632 39.2276 201.896C40.8786 200.557 42.124 198.616 42.5438 196.523C43.0184 194.166 42.5499 191.576 41.7832 189.321Z" fill="url(#paint3_linear_464_9112)"/>
<path d="M130.239 156.893C128.246 153.775 125.258 150.812 121.926 149.151C118.163 147.275 113.606 146.642 109.468 146.212C104.399 145.687 99.2781 145.77 94.2014 146.145C84.2751 146.879 74.6166 148.948 64.8506 150.737C54.3361 152.666 42.771 153.439 33.9887 146.2C25.7479 139.407 22.2066 128.797 21.519 118.437C20.7787 107.288 23.6913 96.1812 22.521 85.0664C21.444 74.848 15.6574 67.0535 10.0675 58.8025C4.28294 50.2677 -1.34546 39.0291 4.60746 29.0947C9.94176 20.1907 20.6631 16.8258 30.5366 17.487C37.2806 17.9373 43.9718 19.856 50.3425 22.4623C45.8033 22.3305 41.3898 23.6894 38.5766 27.5451C33.151 34.9807 39.183 45.3086 42.7406 52.1985C44.854 56.2895 47.0344 60.5002 47.653 65.1205C48.3264 70.1405 46.6409 74.7811 44.4727 79.2291C42.5195 83.2409 40.258 87.1676 39.0877 91.5061C37.8404 96.1264 38.0513 100.974 39.1932 105.594C41.4486 114.723 46.7748 124.191 53.038 131.193C55.8208 134.304 59.1715 136.953 63.0961 138.454C67.9153 140.298 73.1623 140.233 78.2208 139.734C83.6403 139.2 88.9969 138.367 94.4468 138.17C100.079 137.967 105.73 138.2 111.326 138.88C116.975 139.565 129.302 143.048 129.25 133.491C129.221 128.524 127.966 123.262 126.98 118.417C125.954 113.365 124.674 108.365 123.143 103.442C120.114 93.7067 116.084 84.2449 111.143 75.3267C101.962 58.7559 89.2018 44.2153 73.6937 33.2973C69.8847 30.6139 65.9134 28.1658 61.8082 25.9651C61.7271 25.7846 61.6013 25.6163 61.3762 25.4926C60.1511 24.8293 58.7983 24.2432 57.3785 23.7625C54.5754 22.4137 51.7359 21.1399 48.8274 20.0325C39.4447 16.4587 28.8978 13.9477 18.9371 16.55C11.5015 18.4931 4.46345 23.5961 1.47787 30.837C-2.31902 40.0412 1.82267 49.8843 6.86693 57.7053C12.5846 66.5687 19.4705 74.5904 20.515 85.5227C21.5636 96.4915 18.7565 107.436 19.4847 118.437C20.0931 127.629 22.7481 136.803 28.8065 143.918C34.8974 151.068 43.5337 154.297 52.8129 154.165C62.94 154.021 72.8561 151.019 82.827 149.536C92.7897 148.054 103.241 147.072 113.23 148.863C117.8 149.682 121.816 150.95 125.219 154.226C129.065 157.929 130.586 162.022 130.185 167.409C129.452 177.259 124.167 186.152 119.1 194.359C114.279 202.169 109.162 209.98 106.523 218.858C103.515 228.975 103.781 240.035 99.1726 249.679C97.1424 253.928 94.1933 257.699 90.5931 260.731C88.7941 262.246 86.8064 263.607 84.7051 264.674C83.113 265.481 81.4457 266.191 79.7197 265.287C78.5575 264.676 77.6022 263.613 76.7523 262.63C74.1846 259.66 72.2354 255.914 68.4345 254.328C66.607 253.565 64.6558 253.484 62.7067 253.385C59.8347 253.235 57.2284 252.825 54.687 251.393C50.1965 248.864 47.6895 244.58 46.8093 239.599C45.9696 234.845 46.2028 229.867 44.4504 225.298C41.3655 217.258 30.1634 213.617 31.9868 203.816C32.4391 201.38 33.3376 199.054 33.9177 196.651C34.5627 193.979 34.7067 191.264 34.6641 188.523C34.583 183.11 33.9907 177.611 36.4145 172.567C40.2824 164.521 48.3102 160.211 56.6138 157.933C52.3971 160.588 48.9288 164.503 46.8113 168.983C44.7993 173.239 43.8338 177.916 43.7121 182.609C43.5702 188.077 45.1319 193.138 45.7465 198.511C46.3306 203.618 45.4017 208.729 46.5638 213.795C47.5313 218.01 49.5048 221.973 52.2206 225.332C55.0784 228.867 58.707 231.236 62.5728 233.532C64.7857 234.847 67.0228 236.167 68.9273 237.917C70.6716 239.52 71.8825 241.483 73.1319 243.469C75.0202 246.467 77.2452 249.649 80.9975 250.282C84.5713 250.884 88.1268 248.929 90.4045 246.282C93.3576 242.848 94.1426 238.159 94.7815 233.826C95.5826 228.387 96.6373 223.036 98.266 217.779C101.639 206.893 107.16 197.002 113.715 187.73C118.502 180.96 128.414 171.354 124.362 162.168C120.976 154.491 110.541 153.394 103.294 152.739C91.516 151.676 79.6061 152.662 67.897 154.055C58.417 155.183 48.6286 157.108 41.12 163.414C38.0006 166.032 35.4227 169.338 33.9278 173.145C31.9848 178.092 32.4959 183.335 32.5608 188.525C32.5973 191.546 32.3438 194.438 31.5345 197.354C30.8895 199.683 30.058 201.967 29.7375 204.374C29.1858 208.508 30.567 211.996 33.2626 215.083C36.0717 218.304 39.8057 220.819 41.7853 224.703C44.0772 229.196 43.771 234.528 44.5295 239.394C45.8377 247.791 51.7501 254.628 60.5061 255.48C63.2097 255.744 66.0817 255.423 68.5237 256.843C70.5175 258.003 71.9109 259.993 73.282 261.786C75.4198 264.581 78.162 268.412 82.1617 267.964C86.0742 267.524 90.228 264.086 93.0433 261.536C96.3696 258.522 99.1443 254.849 101.085 250.799C105.671 241.226 105.594 230.384 108.403 220.304C113.47 202.133 129.467 188.627 132.124 169.582C132.712 165.341 132.612 160.605 130.239 156.893ZM106.034 136.361C100.412 135.929 94.7592 135.935 89.1389 136.383C83.7154 136.815 78.3202 137.868 72.8662 137.846C67.2196 137.823 62.0151 136.276 57.6949 132.56C54.0015 129.382 51.2065 125.289 48.7138 121.143C43.0023 111.651 38.0675 100.57 42.2214 89.5164C42.9455 87.5895 43.8196 85.7235 44.7202 83.8738C52.2511 79.15 61.9015 82.6629 69.1464 86.4922C76.5434 90.4027 83.6687 94.8466 90.3396 99.899C104.093 110.312 114.977 123.287 124.341 137.687C124.376 137.74 124.418 137.773 124.461 137.811C123.424 138.142 122.262 138.239 121.185 138.227C116.149 138.166 111.072 136.746 106.034 136.361ZM125.485 137.365C125.483 137.27 125.465 137.168 125.406 137.063C118.557 124.757 109.105 113.851 98.4405 104.698C93.1406 100.15 87.5143 95.9946 81.6161 92.2565C75.7788 88.555 69.6535 84.8554 63.1103 82.5473C57.3136 80.5028 50.7968 79.6469 45.351 82.5797C48.1885 76.8012 50.9956 71.116 49.9348 64.2829C48.5252 55.2044 42.0409 48.0163 39.5806 39.2968C39.2216 38.0272 39.0025 36.7473 38.9315 35.4979C48.4988 35.4269 57.6746 40.6598 65.1021 46.2578C72.3652 51.73 79.1031 58.117 85.4373 64.6277C97.7995 77.3306 108.389 91.7028 115.995 107.75C118.194 112.387 120.149 117.135 121.842 121.981C123.53 126.806 124.666 131.854 126.412 136.653C126.144 136.941 125.826 137.168 125.485 137.365ZM104.416 67.0088C116.423 84.8372 123.704 105.477 126.68 126.712C127.031 129.215 127.913 132.479 127.296 134.98C127.254 135.154 127.177 135.294 127.116 135.452C126.467 131.386 125.153 127.347 123.871 123.479C122.41 119.078 120.743 114.746 118.877 110.501C115.113 101.935 110.474 93.7615 105.136 86.0805C94.6922 71.0512 81.5329 57.5126 67.0675 46.3105C59.1999 40.2197 49.2128 34.3296 38.9072 34.7475C38.8869 30.7396 40.5805 27.1537 44.9433 25.4439C49.8253 23.5292 55.8391 24.9551 60.283 27.3667C60.5081 27.4884 60.7231 27.5046 60.9279 27.4782C60.9766 27.5046 61.0253 27.5289 61.074 27.5533C78.4906 36.8325 93.4063 50.6652 104.416 67.0088ZM47.9086 199.439C47.72 196.922 47.1601 194.456 46.6815 191.984C46.8032 191.937 46.9229 191.868 47.0344 191.761C56.0135 183.167 65.1913 175.238 75.8092 168.707C80.8271 165.62 86.0093 162.795 91.3172 160.241C96.9132 157.55 102.653 154.828 108.951 154.654C111.267 154.996 113.551 155.51 115.616 156.288C112.336 157.12 109.178 158.057 106.115 159.607C102.692 161.339 99.5195 163.523 96.4527 165.821C90.0921 170.588 84.0825 175.81 78.519 181.487C67.5177 192.714 57.9829 205.609 50.8638 219.637C48.9836 215.982 47.9654 211.958 47.8984 207.818C47.8579 205.025 48.1195 202.23 47.9086 199.439ZM73.0244 239.901C70.5946 236.35 67.1628 234.072 63.5322 231.891C59.0762 229.216 55.046 226.367 52.1781 221.931C52.0117 221.675 51.8677 221.41 51.7116 221.15C58.6806 207.177 67.3656 194.233 78.1843 182.946C83.5571 177.342 89.3559 172.166 95.5076 167.43C101.684 162.675 108.961 157.467 117.007 156.885C118.23 157.455 119.344 158.138 120.309 158.956C108.18 164.117 99.1625 175.044 92.2746 185.95C84.8491 197.707 79.9996 211.039 78.0159 224.799C76.9815 231.975 76.8436 239.201 77.515 246.41C75.6956 244.558 74.4016 241.913 73.0244 239.901ZM117.843 179.82C114.689 184.128 111.521 188.428 108.598 192.9C102.677 201.965 98.0754 211.769 95.3656 222.274C94.0675 227.308 93.5929 232.457 92.4733 237.518C91.3842 242.44 88.4229 248.452 82.5775 248.631C80.9995 248.679 79.7075 248.182 78.6021 247.373C77.1519 230.401 80.3464 213.272 87.3297 197.766C90.8406 189.972 95.2926 182.658 100.763 176.08C106.403 169.296 112.904 163.022 121.337 159.966C122.352 161.085 123.145 162.389 123.568 163.971C125.126 169.768 121.082 175.395 117.843 179.82ZM96.3757 153.893C98.5236 153.934 101.286 153.956 104.221 154.153C100.404 154.978 96.6434 156.793 93.2786 158.361C87.4047 161.097 81.6851 164.166 76.154 167.543C65.6639 173.946 55.2488 181.224 46.2839 189.673C45.5761 184.905 45.5781 180.053 46.7444 175.338C48.8051 167.004 54.9872 159.183 63.2787 156.524C74.1096 154.609 85.4191 153.692 96.3757 153.893Z" fill="#251C31"/>
<path d="M156.01 174.654C160.15 183.138 168.362 188.442 174.269 195.531C177.564 199.486 179.566 203.924 179.97 209.08C180.368 214.122 179.97 219.225 181.1 224.196C182.984 232.476 188.817 239.905 196.368 243.769C201.904 246.602 210.234 247.428 215.976 244.759C219.852 242.958 222.914 239.97 223.813 235.709C224.936 230.374 221.06 225.43 219.598 220.529C217.892 214.814 218.225 209.439 220.2 203.853C221.922 198.983 224.338 194.312 225.174 189.168C226.711 179.721 221.604 171.608 214.227 166.127C210.029 163.008 205.287 160.651 200.597 158.371C195.912 156.094 191.109 153.988 186.136 152.425C178.193 149.926 165.805 146.977 158.817 153.179C152.777 158.536 152.694 167.858 156.01 174.654Z" fill="url(#paint4_linear_464_9112)"/>
<path d="M158.204 133.209C160.125 134.166 162.687 133.882 164.046 132.298C164.07 132.284 164.094 132.28 164.119 132.262C165.727 131.01 167.528 130.1 169.463 129.473C177.609 126.828 186.231 128.666 194.577 128.731C202.643 128.793 210.359 126.497 216.06 120.571C221.545 114.874 224.045 106.832 222.95 99.0167C222.358 94.7878 220.48 91.0497 218.79 87.1818C217.934 85.2205 217.182 83.2044 216.79 81.095C216.407 79.0364 216.36 76.929 216.332 74.8419C216.277 71.0369 216.387 67.0494 215.028 63.429C213.868 60.342 211.72 57.8006 208.801 56.2469C203.043 53.1802 195.806 53.8942 190.265 57.0724C183.377 61.0235 178.744 67.8972 174.688 74.5113C169.988 82.1761 165.851 90.1836 162.32 98.4508C158.837 106.602 155.714 115.078 154.981 123.98C154.714 127.177 154.892 131.556 158.204 133.209Z" fill="url(#paint5_linear_464_9112)"/>
<path d="M227.809 58.2265C234.252 65.084 245.566 64.5506 252.494 58.7356C256.348 55.5006 258.484 50.9187 259.131 46.0692C259.845 44.0004 260.167 41.7855 260.031 39.5991C259.711 34.4027 257.007 29.8229 252.649 26.9813C244.383 21.5902 233.425 24.0789 227.46 31.626C221.446 39.2401 220.947 50.9248 227.809 58.2265Z" fill="url(#paint6_linear_464_9112)"/>
<path d="M236.792 196.527C237.212 198.62 238.457 200.561 240.108 201.9C243.485 204.636 248.326 204.524 251.707 201.837C254.423 199.677 255.482 196.215 254.878 192.959C254.869 191.645 254.606 190.331 254.08 189.142C253.5 187.83 252.553 186.759 251.535 185.767C250.576 184.832 249.555 183.887 248.349 183.276C246.174 182.179 243.7 182.4 241.664 183.706C239.623 185.013 238.321 187.063 237.552 189.325C236.786 191.576 236.319 194.166 236.792 196.527Z" fill="url(#paint7_linear_464_9112)"/>
<path d="M147.214 169.578C149.871 188.623 165.867 202.129 170.934 220.3C173.745 230.382 173.666 241.221 178.252 250.795C180.193 254.845 182.966 258.518 186.294 261.532C189.109 264.084 193.263 267.522 197.176 267.96C201.175 268.408 203.917 264.577 206.055 261.782C207.426 259.989 208.82 257.999 210.813 256.839C213.253 255.419 216.128 255.738 218.831 255.476C227.589 254.624 233.5 247.787 234.808 239.39C235.566 234.524 235.262 229.192 237.552 224.699C239.532 220.815 243.266 218.3 246.075 215.079C248.77 211.99 250.149 208.504 249.6 204.37C249.279 201.963 248.448 199.681 247.803 197.35C246.993 194.434 246.738 191.541 246.776 188.521C246.841 183.329 247.352 178.088 245.409 173.141C243.915 169.334 241.335 166.028 238.217 163.41C230.707 157.104 220.918 155.179 211.438 154.051C199.729 152.658 187.819 151.67 176.041 152.735C168.794 153.388 158.361 154.487 154.974 162.164C150.923 171.35 160.833 180.956 165.622 187.726C172.177 196.997 177.698 206.889 181.069 217.775C182.698 223.034 183.753 228.385 184.554 233.822C185.193 238.157 185.978 242.844 188.931 246.278C191.206 248.923 194.764 250.88 198.338 250.278C202.09 249.645 204.315 246.462 206.203 243.465C207.453 241.479 208.664 239.518 210.408 237.913C212.312 236.163 214.55 234.843 216.762 233.528C220.628 231.232 224.255 228.863 227.115 225.328C229.83 221.969 231.804 218.006 232.771 213.791C233.934 208.725 233.005 203.614 233.589 198.507C234.203 193.136 235.765 188.073 235.623 182.605C235.501 177.912 234.536 173.237 232.524 168.979C230.406 164.499 226.936 160.584 222.721 157.929C231.025 160.207 239.053 164.517 242.921 172.563C245.345 177.607 244.752 183.106 244.671 188.519C244.631 191.26 244.775 193.973 245.417 196.647C245.998 199.05 246.896 201.376 247.348 203.812C249.17 213.613 237.968 217.254 234.885 225.294C233.132 229.863 233.366 234.841 232.526 239.595C231.646 244.576 229.139 248.86 224.648 251.389C222.107 252.821 219.5 253.231 216.628 253.381C214.679 253.482 212.728 253.561 210.901 254.324C207.1 255.912 205.151 259.656 202.583 262.626C201.733 263.609 200.778 264.672 199.616 265.283C197.889 266.189 196.222 265.479 194.632 264.67C192.531 263.603 190.543 262.244 188.742 260.727C185.142 257.695 182.193 253.922 180.163 249.675C175.554 240.031 175.82 228.971 172.812 218.854C170.173 209.974 165.056 202.165 160.235 194.355C155.168 186.148 149.885 177.254 149.151 167.405C148.749 162.018 150.27 157.925 154.116 154.222C157.519 150.944 161.535 149.676 166.105 148.859C176.094 147.068 186.545 148.05 196.508 149.532C206.479 151.017 216.395 154.017 226.522 154.161C235.802 154.293 244.438 151.064 250.529 143.914C256.589 136.801 259.242 127.625 259.851 118.433C260.579 107.432 257.772 96.4895 258.82 85.5187C259.865 74.5884 266.749 66.5667 272.468 57.7012C277.513 49.8803 281.654 40.0392 277.857 30.833C274.872 23.5921 267.836 18.491 260.398 16.546C250.437 13.9417 239.89 16.4547 230.508 20.0285C227.599 21.1359 224.762 22.4117 221.959 23.7584C220.539 24.2391 219.186 24.8253 217.961 25.4885C217.736 25.6102 217.61 25.7806 217.529 25.9611C213.424 28.1617 209.453 30.6099 205.643 33.2932C190.137 44.2133 177.376 58.7518 168.194 75.3227C163.253 84.2409 159.223 93.7047 156.195 103.438C154.663 108.361 153.384 113.361 152.357 118.413C151.374 123.258 150.116 128.518 150.088 133.487C150.035 143.044 162.361 139.561 168.011 138.876C173.607 138.196 179.258 137.963 184.89 138.166C190.342 138.363 195.697 139.196 201.116 139.73C206.175 140.229 211.422 140.292 216.241 138.45C220.166 136.949 223.516 134.298 226.299 131.189C232.562 124.187 237.889 114.719 240.144 105.59C241.286 100.97 241.497 96.1244 240.25 91.502C239.077 87.1656 236.818 83.2369 234.864 79.225C232.698 74.7791 231.013 70.1364 231.684 65.1165C232.303 60.4961 234.483 56.2835 236.597 52.1945C240.154 45.3045 246.186 34.9747 240.761 27.5411C237.947 23.6854 233.534 22.3244 228.995 22.4583C235.365 19.852 242.055 17.9353 248.799 17.483C258.67 16.8218 269.393 20.1867 274.728 29.0907C280.681 39.0251 275.05 50.2636 269.268 58.7985C263.678 67.0474 257.889 74.842 256.814 85.0623C255.644 96.1772 258.554 107.284 257.814 118.433C257.127 128.793 253.585 139.403 245.344 146.196C236.562 153.435 224.997 152.662 214.483 150.733C204.717 148.942 195.058 146.875 185.132 146.141C180.057 145.766 174.934 145.681 169.867 146.208C165.73 146.638 161.172 147.271 157.41 149.147C154.077 150.808 151.09 153.773 149.096 156.889C146.723 160.605 146.623 165.341 147.214 169.578ZM158.154 138.227C157.077 138.239 155.913 138.142 154.878 137.811C154.919 137.773 154.964 137.74 154.998 137.687C164.36 123.285 175.246 110.31 189 99.899C195.673 94.8466 202.796 90.4027 210.193 86.4922C217.436 82.6629 227.088 79.148 234.619 83.8738C235.52 85.7215 236.394 87.5895 237.118 89.5164C241.272 100.57 236.337 111.651 230.625 121.143C228.131 125.289 225.338 129.382 221.642 132.56C217.322 136.276 212.118 137.823 206.471 137.846C201.017 137.868 195.622 136.815 190.198 136.383C184.578 135.935 178.923 135.931 173.303 136.361C168.263 136.746 163.186 138.166 158.154 138.227ZM152.923 136.651C154.669 131.852 155.803 126.806 157.493 121.979C159.188 117.135 161.144 112.387 163.342 107.748C170.948 91.7008 181.538 77.3286 193.9 64.6257C200.234 58.115 206.974 51.728 214.237 46.2558C221.665 40.6598 230.838 35.4249 240.408 35.4959C240.337 36.7453 240.118 38.0231 239.759 39.2948C237.298 48.0143 230.814 55.2024 229.404 64.2809C228.344 71.1161 231.149 76.7992 233.988 82.5777C228.542 79.6469 222.026 80.5008 216.229 82.5453C209.684 84.8534 203.56 88.555 197.721 92.2545C191.823 95.9926 186.197 100.148 180.899 104.696C170.232 113.849 160.783 124.755 153.933 137.061C153.874 137.166 153.856 137.265 153.854 137.363C153.509 137.168 153.191 136.941 152.923 136.651ZM218.263 27.5512C218.312 27.5249 218.361 27.5005 218.409 27.4762C218.612 27.5026 218.827 27.4884 219.054 27.3646C223.498 24.9531 229.514 23.5272 234.396 25.4419C238.759 27.1537 240.45 30.7376 240.43 34.7455C230.126 34.3276 220.137 40.2177 212.27 46.3085C197.802 57.5085 184.645 71.0491 174.199 86.0785C168.861 93.7595 164.223 101.933 160.458 110.499C158.592 114.744 156.925 119.076 155.467 123.477C154.183 127.347 152.868 131.384 152.219 135.45C152.158 135.292 152.083 135.152 152.039 134.978C151.422 132.477 152.304 129.213 152.655 126.71C155.631 105.477 162.91 84.8352 174.92 67.0068C185.929 50.6652 200.847 36.8325 218.263 27.5512ZM231.433 207.818C231.366 211.958 230.348 215.982 228.467 219.637C221.348 205.609 211.813 192.714 200.812 181.487C195.249 175.81 189.239 170.588 182.878 165.821C179.812 163.523 176.639 161.339 173.216 159.607C170.153 158.057 166.995 157.122 163.715 156.288C165.78 155.51 168.064 154.996 170.38 154.654C176.68 154.828 182.418 157.548 188.014 160.241C193.322 162.795 198.504 165.62 203.522 168.707C214.142 175.238 223.32 183.165 232.297 191.761C232.408 191.868 232.53 191.937 232.65 191.984C232.171 194.456 231.611 196.922 231.423 199.439C231.218 202.23 231.479 205.025 231.433 207.818ZM201.824 246.41C202.496 239.201 202.358 231.975 201.323 224.799C199.342 211.039 194.492 197.705 187.065 185.95C180.175 175.044 171.159 164.117 159.03 158.956C159.996 158.138 161.107 157.455 162.332 156.885C170.378 157.467 177.656 162.675 183.832 167.43C189.983 172.166 195.782 177.34 201.155 182.946C211.974 194.231 220.657 207.175 227.628 221.15C227.472 221.41 227.325 221.675 227.161 221.931C224.293 226.367 220.263 229.216 215.807 231.891C212.174 234.074 208.745 236.352 206.315 239.901C204.936 241.913 203.64 244.558 201.824 246.41ZM155.767 163.969C156.191 162.387 156.984 161.081 157.998 159.964C166.431 163.022 172.932 169.294 178.572 176.078C184.041 182.656 188.495 189.97 192.005 197.764C198.989 213.27 202.183 230.399 200.733 247.371C199.628 248.182 198.336 248.677 196.758 248.629C190.912 248.448 187.951 242.436 186.862 237.516C185.742 232.457 185.268 227.306 183.97 222.272C181.26 211.769 176.66 201.965 170.737 192.898C167.817 188.426 164.646 184.126 161.493 179.818C158.253 175.395 154.209 169.768 155.767 163.969ZM216.059 156.524C224.35 159.183 230.53 167.004 232.591 175.338C233.757 180.053 233.759 184.903 233.051 189.673C224.088 181.226 213.671 173.948 203.181 167.543C197.65 164.166 191.93 161.097 186.057 158.361C182.694 156.796 178.933 154.978 175.116 154.153C178.051 153.956 180.814 153.932 182.962 153.893C193.916 153.692 205.226 154.609 216.059 156.524Z" fill="#251C31"/>
<path d="M144.12 103.814C144.093 105.75 142.949 107.815 141.041 108.47C139.169 109.113 136.99 108.036 135.895 106.503C134.723 104.862 134.599 102.633 135.587 100.877C136.57 99.1262 138.392 98.2176 140.355 98.7672C142.606 99.396 144.089 101.513 144.12 103.814C144.124 104.073 145.594 103.85 145.588 103.42C145.556 101.008 143.945 98.8889 141.629 98.2074C139.282 97.5158 136.39 98.3352 134.794 100.199C133.224 102.035 132.986 104.757 134.347 106.783C135.741 108.862 138.262 109.616 140.645 109.087C143.389 108.476 145.547 106.316 145.588 103.42C145.592 103.173 144.126 103.375 144.12 103.814Z" fill="#251C31"/>
<path d="M141.673 94.1266C145.588 76.712 151.731 59.7923 160.222 44.0795C164.38 36.3843 169.069 28.9751 174.261 21.935C179.695 14.5684 185.849 7.97457 191.982 1.21035C192.599 0.530882 191.651 -0.420363 190.974 0.20231C180.819 9.51604 172.251 21.2231 164.994 32.8795C157.63 44.7042 151.553 57.3848 147.032 70.5644C144.42 78.1784 142.393 86.0034 140.89 93.9095C140.793 94.4186 141.558 94.6418 141.673 94.1266Z" fill="#251C31"/>
<path d="M138.448 93.9116C133.193 66.2827 121.024 40.1021 103.909 17.8278C99.1671 11.6558 94.1107 5.4717 88.3646 0.202304C87.6852 -0.420369 86.74 0.530877 87.3566 1.21034C93.49 7.97456 99.6437 14.5684 105.077 21.935C110.27 28.9751 114.959 36.3823 119.117 44.0795C127.607 59.7923 133.751 76.712 137.665 94.1266C137.781 94.6418 138.544 94.4207 138.448 93.9116Z" fill="#251C31"/>
<path d="M144.119 126.203C144.093 129.692 143.661 134.308 141.164 137.024C138.659 139.748 136.42 134.619 135.852 132.726C134.637 128.684 134.585 124.124 135.566 120.029C136.023 118.129 137.739 112.537 140.568 114.721C141.917 115.762 142.641 117.541 143.13 119.117C143.844 121.407 144.101 123.812 144.119 126.203C144.121 126.577 145.592 126.323 145.588 125.81C145.568 123.143 145.257 120.433 144.326 117.92C143.762 116.395 142.9 114.638 141.41 113.823C138.44 112.198 135.887 115.33 134.889 117.766C132.958 122.477 132.928 128.463 134.432 133.29C135.288 136.034 137.304 139.671 140.73 138.29C142.444 137.6 143.476 135.886 144.144 134.249C145.231 131.586 145.566 128.666 145.588 125.81C145.592 125.443 144.123 125.686 144.119 126.203Z" fill="#251C31"/>
<path d="M143.553 183.938C143.543 190.878 143.353 197.825 142.801 204.747C142.446 209.216 142.061 213.793 140.959 218.154C140.754 218.963 140.507 220.771 139.771 221.304C139.424 221.554 140.105 221.517 139.742 221.33C139.61 221.261 139.462 220.969 139.393 220.848C139.077 220.282 138.872 219.665 138.679 219.047C137.458 215.116 137.099 210.848 136.72 206.772C135.459 193.205 135.442 179.413 136.331 165.821C136.655 160.852 137.051 155.816 138.075 150.932C138.351 149.613 138.736 148.368 139.195 147.107C139.253 146.944 139.422 146.559 139.566 146.453C139.925 146.192 139.215 146.257 139.594 146.427C139.965 146.593 140.195 147.419 140.33 147.752C141.998 151.784 142.217 156.7 142.614 160.984C143.324 168.614 143.541 176.283 143.553 183.938C143.553 184.698 145.042 184.471 145.04 183.822C145.028 176.074 144.801 168.312 144.085 160.594C143.677 156.207 143.523 150.891 141.578 146.833C140.799 145.206 139.288 144.683 138.136 146.326C136.073 149.267 135.968 154.276 135.574 157.672C133.779 173.117 133.828 189.006 135.027 204.492C135.418 209.562 135.688 215.089 137.373 219.939C137.886 221.418 139.032 223.472 140.762 221.973C141.754 221.115 142.085 219.44 142.395 218.237C143.085 215.572 143.446 212.816 143.762 210.086C144.772 201.378 145.026 192.578 145.04 183.82C145.042 183.063 143.555 183.289 143.553 183.938Z" fill="#251C31"/>
<defs>
<linearGradient id="paint0_linear_464_9112" x1="89.7032" y1="149.488" x2="89.7032" y2="246.381" gradientUnits="userSpaceOnUse">
<stop stop-color="#E4B363"/>
<stop offset="0.5" stop-color="#B785F5"/>
<stop offset="1" stop-color="#6D398D"/>
</linearGradient>
<linearGradient id="paint1_linear_464_9112" x1="90.2898" y1="54.2825" x2="90.2898" y2="133.761" gradientUnits="userSpaceOnUse">
<stop stop-color="#E4B363"/>
<stop offset="0.5" stop-color="#B785F5"/>
<stop offset="1" stop-color="#6D398D"/>
</linearGradient>
<linearGradient id="paint2_linear_464_9112" x1="37.8985" y1="24.0922" x2="37.8985" y2="63.2345" gradientUnits="userSpaceOnUse">
<stop stop-color="#E4B363"/>
<stop offset="0.5" stop-color="#B785F5"/>
<stop offset="1" stop-color="#6D398D"/>
</linearGradient>
<linearGradient id="paint3_linear_464_9112" x1="33.5139" y1="182.57" x2="33.5139" y2="203.899" gradientUnits="userSpaceOnUse">
<stop stop-color="#E4B363"/>
<stop offset="0.5" stop-color="#B785F5"/>
<stop offset="1" stop-color="#6D398D"/>
</linearGradient>
<linearGradient id="paint4_linear_464_9112" x1="189.634" y1="149.489" x2="189.634" y2="246.383" gradientUnits="userSpaceOnUse">
<stop stop-color="#E4B363"/>
<stop offset="0.5" stop-color="#B785F5"/>
<stop offset="1" stop-color="#6D398D"/>
</linearGradient>
<linearGradient id="paint5_linear_464_9112" x1="189.049" y1="54.2825" x2="189.049" y2="133.759" gradientUnits="userSpaceOnUse">
<stop stop-color="#E4B363"/>
<stop offset="0.5" stop-color="#B785F5"/>
<stop offset="1" stop-color="#6D398D"/>
</linearGradient>
<linearGradient id="paint6_linear_464_9112" x1="241.434" y1="24.0902" x2="241.434" y2="63.2333" gradientUnits="userSpaceOnUse">
<stop stop-color="#E4B363"/>
<stop offset="0.5" stop-color="#B785F5"/>
<stop offset="1" stop-color="#6D398D"/>
</linearGradient>
<linearGradient id="paint7_linear_464_9112" x1="245.822" y1="182.574" x2="245.822" y2="203.903" gradientUnits="userSpaceOnUse">
<stop stop-color="#E4B363"/>
<stop offset="0.5" stop-color="#B785F5"/>
<stop offset="1" stop-color="#6D398D"/>
</linearGradient>
</defs>
</svg>
