<svg width="41" height="32" viewBox="0 0 41 32" fill="none" xmlns="http://www.w3.org/2000/svg">
<path d="M38.261 0.000116138C35.6446 0 20.6612 9.98923 20.4234 15.2216C20.6612 9.98923 5.2018 0 2.58561 0C-0.505625 0 -0.505624 3.17399e-06 0.91988 5.22891L0.920857 5.23249C1.17877 6.17855 4.25107 17.1243 6.6289 17.1243H14.239C11.8606 17.1244 4.7257 18.5516 4.72622 24.2593C4.72674 29.9672 14.2701 31.3943 15.2215 31.3943C16.1728 31.3943 19.472 22.8322 19.9477 21.4053H20.899C21.3747 22.8323 24.7349 31.3943 25.6862 31.3943C26.6376 31.3943 36.1205 29.4916 36.1205 24.2593C36.1205 18.5516 28.9871 17.1244 26.6077 17.1243H34.2178C36.5962 17.1243 39.6885 6.18372 39.9258 5.23249C41.2132 0.072406 40.877 0 38.261 0.000116138Z" fill="#B785F5"/>
</svg>
