<svg width="753" height="753" viewBox="0 0 753 753" fill="none" xmlns="http://www.w3.org/2000/svg">
<path d="M357.52 396.177C350.533 389.977 338.144 392.924 330.201 395.422C325.226 396.986 320.423 399.094 315.74 401.369C311.049 403.649 306.309 406.006 302.11 409.125C294.735 414.606 289.626 422.717 291.164 432.166C292.001 437.308 294.415 441.981 296.137 446.851C298.11 452.437 298.445 457.811 296.739 463.527C295.277 468.425 291.401 473.372 292.524 478.707C293.421 482.97 296.484 485.955 300.362 487.757C306.104 490.426 314.434 489.6 319.969 486.767C327.52 482.903 333.353 475.473 335.237 467.194C336.369 462.225 335.972 457.12 336.367 452.078C336.773 446.922 338.775 442.484 342.071 438.529C347.977 431.44 356.189 426.136 360.329 417.652C363.641 410.857 363.558 401.536 357.52 396.177Z" fill="url(#paint0_linear_652_542)"/>
<path d="M361.359 366.98C360.627 358.078 357.501 349.602 354.021 341.451C350.49 333.184 346.352 325.176 341.653 317.511C337.596 310.895 332.964 304.021 326.076 300.072C320.534 296.894 313.298 296.18 307.539 299.247C304.621 300.803 302.473 303.342 301.313 306.429C299.952 310.049 300.061 314.037 300.009 317.842C299.978 319.929 299.931 322.036 299.55 324.095C299.157 326.206 298.406 328.22 297.548 330.182C295.859 334.05 293.981 337.788 293.388 342.017C292.295 349.831 294.796 357.873 300.278 363.571C305.98 369.495 313.693 371.791 321.762 371.73C330.106 371.666 338.728 369.828 346.875 372.473C348.81 373.102 350.613 374.012 352.22 375.262C352.244 375.28 352.268 375.284 352.293 375.298C353.652 376.884 356.213 377.168 358.134 376.209C361.442 374.556 361.623 370.177 361.359 366.98Z" fill="url(#paint1_linear_652_542)"/>
<path d="M288.871 274.628C282.906 267.081 271.948 264.592 263.683 269.983C259.326 272.825 256.62 277.405 256.3 282.601C256.166 284.787 256.488 287.002 257.2 289.071C257.847 293.919 259.985 298.503 263.837 301.738C270.765 307.553 282.079 308.084 288.523 301.228C295.386 293.925 294.887 282.24 288.871 274.628Z" fill="url(#paint2_linear_652_542)"/>
<path d="M278.783 432.32C278.015 430.059 276.712 428.01 274.672 426.702C272.634 425.398 270.161 425.175 267.987 426.272C266.78 426.881 265.76 427.826 264.8 428.763C263.782 429.755 262.837 430.826 262.255 432.138C261.728 433.326 261.464 434.641 261.458 435.955C260.853 439.21 261.91 442.673 264.628 444.833C268.009 447.522 272.851 447.632 276.228 444.896C277.879 443.557 279.124 441.616 279.544 439.523C280.018 437.166 279.55 434.576 278.783 432.32Z" fill="url(#paint3_linear_652_542)"/>
<path d="M367.239 399.893C365.246 396.775 362.258 393.812 358.926 392.151C355.163 390.275 350.606 389.642 346.468 389.212C341.399 388.687 336.278 388.77 331.201 389.145C321.275 389.879 311.617 391.948 301.851 393.737C291.336 395.666 279.771 396.439 270.989 389.2C262.748 382.407 259.207 371.797 258.519 361.437C257.779 350.288 260.691 339.181 259.521 328.066C258.444 317.848 252.657 310.053 247.068 301.802C241.283 293.268 235.655 282.029 241.607 272.095C246.942 263.191 257.663 259.826 267.537 260.487C274.281 260.937 280.972 262.856 287.342 265.462C282.803 265.33 278.39 266.689 275.577 270.545C270.151 277.981 276.183 288.309 279.741 295.198C281.854 299.289 284.034 303.5 284.653 308.12C285.326 313.14 283.641 317.781 281.473 322.229C279.52 326.241 277.258 330.168 276.088 334.506C274.84 339.126 275.051 343.974 276.193 348.594C278.449 357.723 283.775 367.191 290.038 374.193C292.821 377.304 296.171 379.953 300.096 381.454C304.915 383.298 310.162 383.233 315.221 382.734C320.64 382.2 325.997 381.367 331.447 381.17C337.079 380.967 342.73 381.2 348.326 381.88C353.975 382.565 366.302 386.048 366.25 376.491C366.221 371.524 364.966 366.262 363.98 361.417C362.954 356.364 361.674 351.365 360.143 346.442C357.114 336.707 353.084 327.245 348.143 318.327C338.962 301.756 326.202 287.215 310.694 276.297C306.885 273.614 302.913 271.166 298.808 268.965C298.727 268.785 298.601 268.616 298.376 268.493C297.151 267.829 295.798 267.243 294.378 266.762C291.575 265.414 288.736 264.14 285.827 263.032C276.445 259.459 265.898 256.948 255.937 259.55C248.501 261.493 241.463 266.596 238.478 273.837C234.681 283.041 238.823 292.884 243.867 300.705C249.585 309.569 256.47 317.59 257.515 328.523C258.564 339.491 255.757 350.436 256.485 361.437C257.093 370.629 259.748 379.803 265.807 386.918C271.897 394.068 280.534 397.297 289.813 397.165C299.94 397.021 309.856 394.019 319.827 392.536C329.79 391.054 340.241 390.072 350.23 391.863C354.8 392.682 358.816 393.95 362.219 397.226C366.065 400.929 367.586 405.022 367.185 410.409C366.452 420.258 361.167 429.152 356.1 437.359C351.279 445.169 346.162 452.98 343.523 461.858C340.515 471.975 340.781 483.035 336.173 492.679C334.142 496.928 331.193 500.699 327.593 503.731C325.794 505.246 323.806 506.607 321.705 507.674C320.113 508.481 318.446 509.191 316.72 508.287C315.557 507.676 314.602 506.613 313.752 505.63C311.185 502.66 309.235 498.914 305.434 497.328C303.607 496.565 301.656 496.484 299.707 496.385C296.835 496.235 294.228 495.825 291.687 494.393C287.196 491.864 284.69 487.58 283.809 482.599C282.97 477.845 283.203 472.867 281.45 468.298C278.365 460.258 267.163 456.617 268.987 446.816C269.439 444.38 270.338 442.054 270.918 439.651C271.563 436.979 271.707 434.264 271.664 431.523C271.583 426.11 270.991 420.611 273.414 415.567C277.282 407.521 285.31 403.211 293.614 400.933C289.397 403.588 285.929 407.503 283.811 411.983C281.799 416.238 280.834 420.916 280.712 425.609C280.57 431.077 282.132 436.138 282.746 441.51C283.331 446.618 282.402 451.729 283.564 456.795C284.531 461.01 286.505 464.973 289.221 468.332C292.078 471.867 295.707 474.236 299.573 476.532C301.786 477.847 304.023 479.167 305.927 480.917C307.672 482.52 308.883 484.483 310.132 486.469C312.02 489.466 314.245 492.649 317.997 493.282C321.571 493.884 325.127 491.929 327.405 489.282C330.358 485.848 331.143 481.159 331.781 476.826C332.583 471.387 333.637 466.036 335.266 460.779C338.639 449.893 344.16 440.001 350.715 430.73C355.502 423.96 365.414 414.354 361.362 405.168C357.976 397.491 347.541 396.394 340.294 395.739C328.516 394.676 316.606 395.662 304.897 397.055C295.417 398.183 285.629 400.108 278.12 406.414C275.001 409.032 272.423 412.338 270.928 416.145C268.985 421.092 269.496 426.335 269.561 431.525C269.597 434.545 269.344 437.438 268.535 440.354C267.89 442.683 267.058 444.967 266.737 447.374C266.186 451.508 267.567 454.996 270.263 458.083C273.072 461.304 276.806 463.819 278.785 467.703C281.077 472.196 280.771 477.528 281.53 482.394C282.838 490.791 288.75 497.628 297.506 498.48C300.21 498.744 303.082 498.423 305.524 499.843C307.518 501.003 308.911 502.993 310.282 504.786C312.42 507.581 315.162 511.412 319.162 510.964C323.074 510.524 327.228 507.086 330.043 504.536C333.37 501.522 336.144 497.849 338.085 493.799C342.671 484.225 342.594 473.384 345.403 463.304C350.47 445.133 366.467 431.627 369.124 412.582C369.712 408.34 369.612 403.604 367.239 399.893ZM343.034 379.361C337.412 378.929 331.759 378.935 326.139 379.383C320.715 379.815 315.32 380.868 309.866 380.845C304.22 380.823 299.015 379.276 294.695 375.56C291.001 372.382 288.207 368.289 285.714 364.143C280.002 354.651 275.068 343.57 279.221 332.516C279.945 330.589 280.82 328.723 281.72 326.874C289.251 322.15 298.901 325.663 306.146 329.492C313.543 333.403 320.669 337.847 327.34 342.899C341.093 353.312 351.977 366.287 361.341 380.687C361.376 380.74 361.418 380.772 361.461 380.811C360.424 381.142 359.262 381.239 358.185 381.227C353.149 381.166 348.072 379.746 343.034 379.361ZM362.485 380.365C362.483 380.269 362.465 380.168 362.406 380.063C355.557 367.757 346.105 356.851 335.44 347.698C330.141 343.15 324.514 338.995 318.616 335.256C312.779 331.555 306.653 327.855 300.11 325.547C294.314 323.503 287.797 322.647 282.351 325.58C285.188 319.801 287.996 314.116 286.935 307.283C285.525 298.204 279.041 291.016 276.581 282.297C276.222 281.027 276.003 279.747 275.932 278.498C285.499 278.427 294.675 283.66 302.102 289.258C309.365 294.73 316.103 301.117 322.437 307.628C334.8 320.331 345.389 334.703 352.995 350.75C355.194 355.387 357.149 360.135 358.842 364.98C360.53 369.806 361.666 374.854 363.412 379.653C363.144 379.941 362.826 380.168 362.485 380.365ZM341.416 310.009C353.423 327.837 360.704 348.477 363.68 369.712C364.031 372.215 364.913 375.479 364.296 377.98C364.254 378.154 364.177 378.294 364.116 378.452C363.467 374.386 362.153 370.347 360.871 366.479C359.41 362.078 357.743 357.746 355.877 353.501C352.113 344.935 347.474 336.761 342.136 329.08C331.692 314.051 318.533 300.513 304.067 289.31C296.2 283.22 286.213 277.33 275.907 277.747C275.887 273.74 277.581 270.154 281.943 268.444C286.825 266.529 292.839 267.955 297.283 270.367C297.508 270.488 297.723 270.505 297.928 270.478C297.977 270.505 298.025 270.529 298.074 270.553C315.491 279.832 330.406 293.665 341.416 310.009ZM284.909 442.439C284.72 439.922 284.16 437.456 283.681 434.984C283.803 434.937 283.923 434.868 284.034 434.76C293.013 426.167 302.191 418.238 312.809 411.707C317.827 408.62 323.009 405.795 328.317 403.241C333.913 400.55 339.653 397.828 345.951 397.654C348.267 397.996 350.551 398.51 352.616 399.288C349.336 400.12 346.178 401.057 343.115 402.607C339.692 404.339 336.519 406.523 333.453 408.821C327.092 413.588 321.082 418.81 315.519 424.487C304.518 435.714 294.983 448.609 287.864 462.637C285.984 458.982 284.965 454.958 284.898 450.818C284.858 448.025 285.12 445.23 284.909 442.439ZM310.024 482.901C307.595 479.35 304.163 477.072 300.532 474.891C296.076 472.216 292.046 469.366 289.178 464.931C289.012 464.675 288.868 464.409 288.712 464.15C295.681 450.177 304.366 437.233 315.184 425.946C320.557 420.342 326.356 415.166 332.508 410.43C338.684 405.675 345.961 400.467 354.007 399.885C355.23 400.455 356.344 401.138 357.309 401.956C345.18 407.117 336.162 418.044 329.275 428.95C321.849 440.707 317 454.039 315.016 467.799C313.982 474.975 313.844 482.201 314.515 489.41C312.696 487.558 311.402 484.913 310.024 482.901ZM354.843 422.82C351.689 427.128 348.521 431.428 345.598 435.9C339.677 444.965 335.075 454.769 332.366 465.273C331.068 470.308 330.593 475.457 329.473 480.518C328.384 485.44 325.423 491.452 319.578 491.631C318 491.679 316.708 491.182 315.602 490.373C314.152 473.401 317.346 456.272 324.33 440.766C327.841 432.972 332.293 425.658 337.763 419.08C343.403 412.296 349.904 406.022 358.337 402.966C359.352 404.085 360.145 405.389 360.568 406.971C362.126 412.768 358.082 418.395 354.843 422.82ZM333.376 396.893C335.524 396.934 338.286 396.956 341.221 397.153C337.404 397.978 333.643 399.793 330.279 401.361C324.405 404.097 318.685 407.166 313.154 410.543C302.664 416.946 292.249 424.224 283.284 432.673C282.576 427.905 282.578 423.053 283.744 418.338C285.805 410.004 291.987 402.183 300.279 399.524C311.11 397.609 322.419 396.692 333.376 396.893Z" fill="#251C31"/>
<path d="M393.011 417.654C397.151 426.138 405.363 431.442 411.27 438.531C414.565 442.486 416.567 446.924 416.971 452.08C417.369 457.122 416.971 462.225 418.101 467.196C419.985 475.476 425.818 482.905 433.369 486.769C438.904 489.602 447.235 490.428 452.977 487.759C456.853 485.958 459.915 482.97 460.814 478.709C461.937 473.374 458.061 468.43 456.599 463.529C454.893 457.814 455.226 452.439 457.201 446.853C458.923 441.983 461.339 437.312 462.175 432.168C463.712 422.721 458.605 414.608 451.228 409.128C447.03 406.008 442.288 403.651 437.598 401.371C432.913 399.094 428.11 396.988 423.137 395.425C415.194 392.926 402.806 389.977 395.818 396.179C389.778 401.536 389.695 410.858 393.011 417.654Z" fill="url(#paint4_linear_652_542)"/>
<path d="M395.205 376.209C397.126 377.166 399.688 376.882 401.047 375.298C401.071 375.284 401.095 375.28 401.12 375.262C402.728 374.01 404.529 373.1 406.464 372.473C414.61 369.828 423.232 371.666 431.578 371.731C439.644 371.793 447.36 369.497 453.061 363.571C458.546 357.874 461.046 349.832 459.951 342.017C459.359 337.788 457.481 334.05 455.791 330.182C454.935 328.221 454.183 326.204 453.791 324.095C453.408 322.036 453.361 319.929 453.333 317.842C453.278 314.037 453.388 310.049 452.029 306.429C450.869 303.342 448.721 300.801 445.802 299.247C440.044 296.18 432.807 296.894 427.266 300.072C420.378 304.024 415.745 310.897 411.689 317.511C406.989 325.176 402.852 333.184 399.321 341.451C395.838 349.602 392.715 358.078 391.982 366.98C391.715 370.177 391.893 374.556 395.205 376.209Z" fill="url(#paint5_linear_652_542)"/>
<path d="M464.809 301.227C471.253 308.084 482.567 307.551 489.495 301.736C493.349 298.501 495.485 293.919 496.132 289.069C496.846 287 497.168 284.786 497.032 282.599C496.712 277.403 494.008 272.823 489.649 269.981C481.384 264.59 470.426 267.079 464.461 274.626C458.447 282.24 457.948 293.925 464.809 301.227Z" fill="url(#paint6_linear_652_542)"/>
<path d="M473.793 439.527C474.213 441.62 475.458 443.561 477.109 444.9C480.486 447.636 485.327 447.524 488.708 444.837C491.424 442.677 492.483 439.215 491.879 435.959C491.87 434.645 491.607 433.331 491.081 432.142C490.501 430.83 489.554 429.759 488.536 428.767C487.577 427.832 486.556 426.887 485.35 426.276C483.175 425.179 480.701 425.4 478.664 426.706C476.624 428.013 475.322 430.063 474.553 432.325C473.787 434.576 473.32 437.166 473.793 439.527Z" fill="url(#paint7_linear_652_542)"/>
<path d="M384.214 412.578C386.871 431.623 402.868 445.129 407.935 463.3C410.746 473.382 410.667 484.221 415.252 493.795C417.193 497.845 419.966 501.518 423.294 504.532C426.11 507.084 430.264 510.522 434.176 510.96C438.176 511.408 440.918 507.577 443.056 504.782C444.427 502.989 445.82 500.999 447.814 499.839C450.254 498.419 453.128 498.738 455.832 498.476C464.59 497.624 470.5 490.787 471.808 482.39C472.567 477.524 472.263 472.192 474.552 467.699C476.532 463.815 480.266 461.3 483.075 458.079C485.771 454.99 487.15 451.504 486.6 447.37C486.28 444.963 485.448 442.681 484.803 440.35C483.994 437.434 483.738 434.541 483.777 431.521C483.842 426.329 484.353 421.088 482.41 416.141C480.915 412.334 478.335 409.028 475.218 406.41C467.707 400.104 457.919 398.179 448.439 397.051C436.73 395.658 424.82 394.67 413.042 395.735C405.795 396.388 395.361 397.487 391.974 405.164C387.924 414.35 397.834 423.956 402.622 430.726C409.178 439.997 414.699 449.889 418.07 460.775C419.698 466.034 420.753 471.385 421.554 476.822C422.193 481.157 422.978 485.844 425.931 489.278C428.207 491.923 431.764 493.88 435.338 493.278C439.09 492.645 441.315 489.462 443.204 486.465C444.453 484.479 445.664 482.518 447.408 480.913C449.313 479.163 451.55 477.843 453.763 476.528C457.629 474.232 461.255 471.863 464.115 468.328C466.831 464.969 468.804 461.006 469.772 456.791C470.934 451.725 470.005 446.614 470.589 441.506C471.204 436.136 472.766 431.073 472.624 425.605C472.502 420.912 471.536 416.237 469.524 411.979C467.407 407.499 463.937 403.584 459.722 400.929C468.026 403.207 476.053 407.517 479.921 415.563C482.345 420.607 481.753 426.106 481.672 431.519C481.631 434.26 481.775 436.973 482.418 439.647C482.998 442.05 483.897 444.376 484.349 446.812C486.17 456.613 474.968 460.254 471.885 468.294C470.133 472.863 470.366 477.841 469.526 482.595C468.646 487.576 466.139 491.86 461.649 494.389C459.107 495.821 456.501 496.231 453.629 496.381C451.68 496.482 449.729 496.561 447.901 497.324C444.1 498.912 442.151 502.656 439.583 505.626C438.734 506.609 437.778 507.672 436.616 508.283C434.89 509.189 433.223 508.479 431.633 507.67C429.531 506.603 427.544 505.244 425.743 503.727C422.142 500.695 419.193 496.922 417.163 492.675C412.555 483.031 412.821 471.971 409.813 461.854C407.174 452.974 402.057 445.165 397.235 437.355C392.169 429.148 386.885 420.254 386.151 410.405C385.749 405.018 387.271 400.925 391.116 397.222C394.52 393.944 398.536 392.676 403.105 391.859C413.094 390.068 423.546 391.05 433.509 392.532C443.48 394.017 453.396 397.017 463.523 397.161C472.802 397.293 481.438 394.064 487.529 386.914C493.59 379.801 496.243 370.625 496.851 361.433C497.579 350.432 494.772 339.489 495.821 328.519C496.865 317.588 503.749 309.567 509.469 300.701C514.513 292.88 518.655 283.039 514.858 273.833C511.872 266.592 504.836 261.491 497.399 259.546C487.438 256.942 476.891 259.455 467.508 263.028C464.6 264.136 461.762 265.412 458.959 266.758C457.539 267.239 456.187 267.825 454.962 268.489C454.736 268.61 454.611 268.781 454.53 268.961C450.424 271.162 446.453 273.61 442.644 276.293C427.138 287.213 414.376 301.752 405.194 318.323C400.254 327.241 396.223 336.705 393.195 346.438C391.664 351.361 390.384 356.36 389.358 361.413C388.374 366.258 387.117 371.518 387.088 376.487C387.035 386.044 399.361 382.561 405.012 381.876C410.608 381.196 416.258 380.963 421.891 381.166C427.343 381.363 432.697 382.196 438.117 382.73C443.175 383.229 448.422 383.292 453.242 381.45C457.166 379.949 460.517 377.298 463.3 374.189C469.563 367.187 474.889 357.719 477.145 348.59C478.286 343.97 478.497 339.124 477.25 334.502C476.078 330.166 473.818 326.237 471.865 322.225C469.699 317.779 468.013 313.136 468.685 308.117C469.303 303.496 471.484 299.283 473.597 295.195C477.155 288.305 483.187 277.975 477.761 270.541C474.948 266.685 470.534 265.324 465.995 265.458C472.366 262.852 479.055 260.935 485.799 260.483C495.671 259.822 506.394 263.187 511.728 272.091C517.681 282.025 512.051 293.264 506.268 301.798C500.678 310.047 494.89 317.842 493.815 328.062C492.644 339.177 495.555 350.284 494.815 361.433C494.127 371.793 490.586 382.403 482.345 389.196C473.563 396.435 461.998 395.662 451.483 393.733C441.717 391.942 432.059 389.875 422.132 389.141C417.058 388.766 411.934 388.681 406.868 389.208C402.73 389.638 398.173 390.271 394.41 392.147C391.078 393.808 388.09 396.773 386.096 399.889C383.723 403.605 383.624 408.341 384.214 412.578ZM395.155 381.227C394.078 381.239 392.913 381.142 391.879 380.811C391.919 380.773 391.964 380.74 391.999 380.687C401.361 366.285 412.247 353.31 426 342.899C432.673 337.847 439.796 333.403 447.193 329.492C454.436 325.663 464.089 322.148 471.62 326.874C472.52 328.722 473.394 330.59 474.118 332.516C478.272 343.57 473.338 354.651 467.626 364.143C465.131 368.289 462.338 372.382 458.643 375.56C454.323 379.276 449.118 380.823 443.472 380.846C438.018 380.868 432.622 379.815 427.199 379.383C421.579 378.935 415.924 378.931 410.304 379.361C405.263 379.746 400.187 381.166 395.155 381.227ZM389.924 379.651C391.67 374.852 392.804 369.806 394.493 364.979C396.189 360.135 398.144 355.387 400.343 350.748C407.949 334.701 418.538 320.329 430.9 307.626C437.235 301.115 443.974 294.728 451.238 289.256C458.665 283.66 467.839 278.425 477.408 278.496C477.337 279.745 477.118 281.023 476.759 282.295C474.299 291.014 467.815 298.202 466.405 307.281C465.344 314.116 468.149 319.799 470.989 325.578C465.543 322.647 459.026 323.501 453.229 325.545C446.684 327.853 440.561 331.555 434.722 335.255C428.823 338.993 423.197 343.148 417.899 347.696C407.233 356.849 397.783 367.755 390.934 380.061C390.875 380.166 390.857 380.265 390.855 380.363C390.51 380.168 390.191 379.941 389.924 379.651ZM455.264 270.551C455.312 270.525 455.361 270.501 455.41 270.476C455.613 270.503 455.828 270.488 456.055 270.365C460.499 267.953 466.514 266.527 471.396 268.442C475.759 270.154 477.451 273.738 477.43 277.745C467.127 277.328 457.138 283.218 449.27 289.309C434.803 300.509 421.645 314.049 411.2 329.078C405.862 336.759 401.223 344.933 397.459 353.499C395.593 357.744 393.925 362.076 392.467 366.477C391.183 370.347 389.869 374.384 389.22 378.45C389.159 378.292 389.084 378.152 389.039 377.978C388.423 375.477 389.305 372.213 389.656 369.71C392.631 348.477 399.911 327.835 411.92 310.007C422.929 293.665 437.847 279.833 455.264 270.551ZM468.433 450.818C468.366 454.958 467.348 458.982 465.468 462.637C458.349 448.609 448.814 435.714 437.813 424.487C432.249 418.81 426.239 413.588 419.879 408.821C416.812 406.523 413.64 404.339 410.216 402.607C407.154 401.057 403.996 400.122 400.716 399.288C402.781 398.51 405.065 397.996 407.381 397.654C413.681 397.828 419.418 400.548 425.014 403.241C430.322 405.795 435.505 408.62 440.522 411.707C451.142 418.238 460.32 426.165 469.297 434.761C469.409 434.868 469.53 434.937 469.65 434.984C469.171 437.456 468.612 439.922 468.423 442.439C468.218 445.23 468.48 448.025 468.433 450.818ZM438.825 489.41C439.496 482.201 439.358 474.975 438.324 467.799C436.342 454.039 431.493 440.705 424.065 428.95C417.175 418.044 408.16 407.117 396.031 401.956C396.996 401.138 398.108 400.455 399.333 399.885C407.379 400.467 414.656 405.675 420.832 410.43C426.984 415.166 432.783 420.34 438.155 425.946C448.974 437.231 457.657 450.175 464.628 464.15C464.472 464.41 464.326 464.675 464.162 464.931C461.294 469.367 457.264 472.216 452.808 474.892C449.175 477.074 445.745 479.352 443.315 482.901C441.936 484.913 440.64 487.558 438.825 489.41ZM392.767 406.969C393.191 405.387 393.984 404.081 394.998 402.964C403.432 406.022 409.932 412.294 415.573 419.078C421.041 425.656 425.495 432.97 429.006 440.764C435.989 456.27 439.184 473.399 437.734 490.371C436.628 491.182 435.336 491.677 433.758 491.629C427.913 491.448 424.952 485.436 423.862 480.516C422.743 475.457 422.268 470.306 420.97 465.272C418.26 454.769 413.66 444.965 407.738 435.898C404.817 431.426 401.647 427.126 398.493 422.818C395.254 418.395 391.21 412.768 392.767 406.969ZM453.059 399.524C461.351 402.183 467.531 410.004 469.591 418.338C470.758 423.053 470.76 427.903 470.052 432.673C461.089 424.226 450.672 416.948 440.182 410.543C434.651 407.166 428.931 404.097 423.057 401.361C419.694 399.796 415.934 397.978 412.117 397.153C415.052 396.956 417.814 396.932 419.962 396.893C430.917 396.692 442.226 397.609 453.059 399.524Z" fill="#251C31"/>
<path d="M381.119 346.814C381.093 348.751 379.949 350.815 378.04 351.47C376.168 352.113 373.99 351.036 372.894 349.503C371.722 347.862 371.598 345.633 372.586 343.877C373.57 342.126 375.391 341.218 377.355 341.767C379.606 342.396 381.089 344.514 381.119 346.814C381.123 347.073 382.594 346.85 382.587 346.42C382.555 344.008 380.945 341.889 378.628 341.207C376.282 340.516 373.389 341.335 371.793 343.199C370.223 345.035 369.986 347.757 371.347 349.783C372.74 351.862 375.261 352.616 377.645 352.087C380.389 351.477 382.547 349.316 382.587 346.42C382.592 346.173 381.125 346.375 381.119 346.814Z" fill="#251C31"/>
<path d="M378.672 337.127C382.587 319.712 388.73 302.792 397.221 287.079C401.379 279.384 406.068 271.975 411.26 264.935C416.694 257.568 422.848 250.975 428.981 244.21C429.598 243.531 428.65 242.58 427.973 243.202C417.818 252.516 409.25 264.223 401.993 275.879C394.629 287.704 388.552 300.385 384.031 313.564C381.419 321.178 379.392 329.003 377.889 336.91C377.792 337.419 378.557 337.642 378.672 337.127Z" fill="#251C31"/>
<path d="M375.448 336.912C370.193 309.283 358.023 283.102 340.909 260.828C336.167 254.656 331.11 248.472 325.364 243.202C324.685 242.58 323.74 243.531 324.356 244.21C330.49 250.975 336.643 257.568 342.077 264.935C347.269 271.975 351.959 279.382 356.117 287.079C364.607 302.792 370.75 319.712 374.665 337.127C374.78 337.642 375.543 337.421 375.448 336.912Z" fill="#251C31"/>
<path d="M381.119 369.203C381.093 372.692 380.661 377.308 378.164 380.024C375.659 382.748 373.42 377.619 372.852 375.726C371.637 371.684 371.584 367.124 372.566 363.029C373.022 361.129 374.738 355.537 377.567 357.722C378.916 358.762 379.64 360.541 380.129 362.117C380.843 364.407 381.101 366.812 381.119 369.203C381.121 369.577 382.591 369.323 382.587 368.81C382.567 366.143 382.257 363.433 381.326 360.92C380.762 359.395 379.9 357.638 378.409 356.823C375.44 355.198 372.886 358.33 371.888 360.766C369.957 365.478 369.927 371.463 371.432 376.29C372.288 379.034 374.304 382.671 377.73 381.29C379.444 380.6 380.476 378.886 381.143 377.25C382.23 374.586 382.565 371.666 382.587 368.81C382.591 368.443 381.123 368.686 381.119 369.203Z" fill="#251C31"/>
<path d="M380.553 426.938C380.543 433.878 380.353 440.825 379.801 447.747C379.446 452.216 379.061 456.793 377.959 461.154C377.754 461.964 377.507 463.771 376.771 464.304C376.424 464.554 377.105 464.517 376.742 464.33C376.61 464.262 376.462 463.969 376.393 463.848C376.077 463.282 375.872 462.665 375.679 462.047C374.458 458.116 374.099 453.848 373.72 449.772C372.459 436.205 372.442 422.413 373.331 408.821C373.655 403.852 374.051 398.816 375.075 393.932C375.351 392.614 375.736 391.368 376.195 390.107C376.253 389.944 376.422 389.559 376.566 389.454C376.925 389.192 376.215 389.257 376.594 389.427C376.965 389.593 377.195 390.419 377.33 390.752C378.998 394.784 379.217 399.7 379.614 403.984C380.324 411.614 380.541 419.283 380.553 426.938C380.553 427.698 382.042 427.471 382.04 426.822C382.028 419.074 381.801 411.312 381.085 403.594C380.677 399.207 380.523 393.891 378.578 389.833C377.799 388.206 376.288 387.683 375.136 389.326C373.073 392.267 372.968 397.276 372.574 400.672C370.779 416.117 370.828 432.006 372.027 447.492C372.418 452.563 372.688 458.09 374.373 462.939C374.886 464.418 376.032 466.472 377.762 464.973C378.754 464.115 379.085 462.44 379.395 461.237C380.085 458.572 380.446 455.816 380.762 453.086C381.772 444.379 382.026 435.578 382.04 426.82C382.042 426.063 380.555 426.289 380.553 426.938Z" fill="#251C31"/>
<path d="M276.07 584.354L256.888 618.368L245.343 611.857C241.734 609.822 239.164 607.362 237.633 604.478C236.052 601.608 235.384 598.538 235.629 595.266C235.857 592.027 236.853 588.842 238.618 585.712C240.563 582.263 242.927 579.639 245.709 577.84C248.46 576.024 251.461 575.106 254.712 575.088C257.932 575.051 261.203 575.97 264.524 577.843L276.07 584.354ZM241.971 587.603C240.441 590.318 239.592 593.018 239.425 595.702C239.226 598.368 239.752 600.832 241.002 603.095C242.234 605.389 244.239 607.32 247.018 608.887L255.21 613.507L271.041 585.433L262.849 580.813C260.039 579.228 257.324 578.518 254.705 578.683C252.087 578.848 249.688 579.705 247.509 581.255C245.312 582.836 243.466 584.952 241.971 587.603Z" fill="#3D2A56"/>
<path d="M235.29 557.799C236.913 559.056 238.185 560.529 239.104 562.215C240.002 563.931 240.542 565.718 240.726 567.576C240.887 569.464 240.707 571.342 240.186 573.211C239.637 575.058 238.733 576.793 237.476 578.417C235.836 580.533 233.853 582.104 231.527 583.131C229.172 584.136 226.735 584.497 224.216 584.216C221.675 583.963 219.318 582.995 217.144 581.311C214.912 579.582 213.385 577.541 212.564 575.188C211.714 572.813 211.495 570.371 211.909 567.862C212.299 565.382 213.303 563.098 214.92 561.012C215.1 560.78 215.279 560.548 215.459 560.316C215.616 560.113 215.754 559.965 215.873 559.871L235.264 574.895C236.377 573.159 237.051 571.362 237.285 569.503C237.468 567.65 237.243 565.875 236.609 564.178C235.924 562.488 234.857 561.082 233.408 559.959C231.93 558.813 230.246 558.112 228.358 557.855C226.441 557.576 224.75 557.843 223.285 558.656L221.259 555.973C222.553 555.26 224.016 554.839 225.646 554.711C227.276 554.582 228.934 554.777 230.621 555.295C232.255 555.819 233.812 556.654 235.29 557.799ZM233.701 577.092L216.962 564.124C215.798 565.866 215.124 567.663 214.941 569.516C214.729 571.346 214.977 573.092 215.684 574.753C216.34 576.421 217.407 577.827 218.886 578.973C220.364 580.118 221.992 580.8 223.771 581.018C225.527 581.266 227.291 581.055 229.062 580.386C230.781 579.724 232.327 578.626 233.701 577.092Z" fill="#3D2A56"/>
<path d="M214.761 539.686C216.428 541.337 217.708 543.145 218.6 545.111C219.491 547.077 219.904 549.136 219.837 551.288L216.885 552.081C216.796 549.878 216.423 547.961 215.767 546.331C215.059 544.701 214.053 543.241 212.75 541.952C211.16 540.378 209.561 539.414 207.951 539.059C206.316 538.731 204.905 539.166 203.719 540.365C202.919 541.172 202.561 542.03 202.643 542.937C202.674 543.844 203.016 544.88 203.67 546.043C204.273 547.207 205.044 548.564 205.986 550.115C207.006 551.898 207.792 553.476 208.343 554.847C208.843 556.219 209.018 557.476 208.868 558.617C208.667 559.759 208.037 560.864 206.98 561.933C205.664 563.262 204.255 564.034 202.752 564.249C201.198 564.464 199.628 564.226 198.043 563.534C196.406 562.842 194.871 561.787 193.437 560.369C191.874 558.821 190.738 557.206 190.029 555.525C189.32 553.843 189.027 552.185 189.148 550.551L192.218 550.03C192.122 551.586 192.389 553.062 193.018 554.459C193.596 555.856 194.497 557.161 195.722 558.373C196.556 559.199 197.467 559.868 198.454 560.382C199.417 560.921 200.403 561.176 201.414 561.144C202.373 561.114 203.291 560.655 204.168 559.769C204.891 559.039 205.276 558.286 205.324 557.507C205.346 556.755 205.134 555.875 204.688 554.866C204.216 553.883 203.601 552.707 202.842 551.336C201.717 549.398 200.8 547.639 200.092 546.061C199.358 544.509 199.014 543.085 199.059 541.789C199.104 540.492 199.733 539.231 200.946 538.006C202.829 536.104 205.015 535.328 207.506 535.678C209.997 536.028 212.415 537.364 214.761 539.686Z" fill="#3D2A56"/>
<path d="M203.618 528.619L181.923 547.339L179.48 544.508L201.175 525.787L203.618 528.619ZM177.385 551.256L173.221 554.849L170.777 552.017L174.941 548.424L177.385 551.256Z" fill="#3D2A56"/>
<path d="M190.403 511.377C191.531 512.959 192.246 514.656 192.547 516.468C192.848 518.28 192.797 520.072 192.395 521.845C191.941 523.609 191.189 525.271 190.139 526.83C189.089 528.389 187.803 529.711 186.28 530.796C184.638 531.967 182.919 532.809 181.125 533.323C179.278 533.829 177.448 534.008 175.632 533.862C173.795 533.685 172.095 533.164 170.531 532.297C168.938 531.451 167.567 530.222 166.417 528.61C164.991 526.61 164.264 524.516 164.237 522.33C164.188 520.113 164.548 517.965 165.317 515.886L160.435 519.366L158.488 516.634L181.911 499.937C184.06 498.404 186.239 497.639 188.447 497.641C190.664 497.592 192.773 498.182 194.775 499.412C196.756 500.611 198.481 502.241 199.949 504.301C201.844 506.959 202.898 509.449 203.113 511.772C203.329 514.095 203.003 516.354 202.135 518.549L199.316 517.721C200.12 515.753 200.337 513.752 199.968 511.718C199.578 509.655 198.765 507.757 197.531 506.025C196.445 504.503 195.172 503.317 193.711 502.467C192.258 501.566 190.714 501.136 189.077 501.177C187.419 501.189 185.754 501.79 184.082 502.982L179.469 506.27C181.57 506.123 183.622 506.507 185.625 507.421C187.597 508.356 189.19 509.675 190.403 511.377ZM187.244 512.345C186.584 511.42 185.792 510.656 184.868 510.054C183.922 509.422 182.925 508.94 181.877 508.606C180.799 508.294 179.746 508.144 178.719 508.156C177.692 508.168 176.777 508.369 175.975 508.761L168.765 513.901C167.95 515.157 167.407 516.512 167.137 517.965C166.837 519.44 166.832 520.885 167.12 522.3C167.358 523.707 167.881 524.978 168.689 526.112C169.626 527.426 170.75 528.403 172.062 529.044C173.324 529.676 174.672 530.02 176.109 530.077C177.494 530.125 178.892 529.939 180.303 529.518C181.715 529.098 182.988 528.483 184.122 527.674C185.376 526.78 186.411 525.705 187.226 524.448C188.012 523.213 188.575 521.888 188.918 520.473C189.209 519.05 189.221 517.645 188.954 516.26C188.665 514.844 188.095 513.54 187.244 512.345Z" fill="#3D2A56"/>
<path d="M167.241 473.097L168.993 476.401L154.851 483.896C151.87 485.476 149.931 487.063 149.034 488.659C148.105 490.272 148.138 492.018 149.134 493.897C149.82 495.193 150.823 496.301 152.14 497.222C153.425 498.159 154.876 498.822 156.493 499.21C158.06 499.583 159.652 499.611 161.268 499.294L176.771 491.078L178.522 494.383L153.203 507.801L151.606 504.787L157.34 501.748C155.749 501.721 154.207 501.396 152.716 500.775C151.193 500.172 149.803 499.311 148.546 498.192C147.29 497.074 146.267 495.77 145.477 494.279C144.738 492.886 144.371 491.566 144.374 490.32C144.378 489.073 144.711 487.9 145.374 486.802C146.004 485.721 146.931 484.69 148.154 483.71C149.345 482.747 150.767 481.828 152.419 480.952L167.241 473.097Z" fill="#3D2A56"/>
<path d="M164.979 467.072L138.545 478.133L137.101 474.683L163.535 463.622L164.979 467.072ZM133.015 480.448L127.941 482.571L126.497 479.121L131.571 476.997L133.015 480.448Z" fill="#3D2A56"/>
<path d="M153.313 433.717L154.438 437.283L139.174 442.097C135.956 443.111 133.762 444.322 132.591 445.729C131.385 447.148 131.102 448.871 131.742 450.899C132.183 452.298 132.968 453.569 134.097 454.712C135.192 455.866 136.499 456.781 138.019 457.455C139.493 458.105 141.053 458.42 142.7 458.401L159.433 453.125L160.558 456.691L133.229 465.309L132.204 462.057L138.393 460.105C136.833 459.79 135.376 459.192 134.021 458.312C132.632 457.442 131.421 456.344 130.387 455.017C129.354 453.69 128.583 452.222 128.076 450.613C127.602 449.11 127.479 447.745 127.708 446.519C127.937 445.294 128.476 444.201 129.327 443.241C130.142 442.292 131.241 441.446 132.621 440.703C133.967 439.971 135.531 439.324 137.314 438.761L153.313 433.717Z" fill="#3D2A56"/>
<path d="M150.454 417.112C150.791 419.026 150.706 420.865 150.197 422.63C149.689 424.395 148.872 425.991 147.745 427.418C146.577 428.815 145.183 429.991 143.564 430.946C141.945 431.902 140.215 432.541 138.373 432.866C136.387 433.215 134.473 433.236 132.632 432.927C130.748 432.589 129.018 431.962 127.442 431.048C125.86 430.098 124.55 428.896 123.512 427.44C122.438 425.991 121.729 424.292 121.386 422.342C120.96 419.922 121.205 417.72 122.121 415.734C123.031 413.712 124.281 411.929 125.87 410.383L119.966 411.423L119.384 408.118L147.713 403.13C150.313 402.673 152.609 402.92 154.601 403.872C156.623 404.782 158.273 406.223 159.551 408.194C160.822 410.13 161.678 412.344 162.116 414.835C162.682 418.049 162.562 420.751 161.756 422.94C160.95 425.13 159.684 427.028 157.956 428.636L155.768 426.675C157.341 425.244 158.398 423.532 158.94 421.537C159.476 419.507 159.56 417.445 159.191 415.35C158.867 413.509 158.228 411.89 157.275 410.494C156.352 409.056 155.142 408.003 153.647 407.335C152.146 406.632 150.384 406.458 148.362 406.814L142.783 407.796C144.743 408.568 146.43 409.797 147.844 411.484C149.222 413.178 150.092 415.054 150.454 417.112ZM147.186 416.626C146.989 415.507 146.602 414.477 146.027 413.535C145.446 412.558 144.753 411.693 143.951 410.941C143.112 410.195 142.227 409.607 141.294 409.175C140.362 408.744 139.45 408.532 138.558 408.54L129.837 410.076C128.56 410.859 127.487 411.848 126.618 413.044C125.713 414.246 125.085 415.547 124.737 416.949C124.345 418.321 124.27 419.693 124.512 421.065C124.792 422.654 125.386 424.02 126.295 425.163C127.161 426.277 128.23 427.168 129.502 427.838C130.731 428.478 132.074 428.911 133.529 429.139C134.983 429.367 136.397 429.36 137.769 429.119C139.286 428.851 140.683 428.326 141.96 427.543C143.2 426.766 144.28 425.813 145.198 424.683C146.073 423.524 146.689 422.261 147.044 420.896C147.393 419.494 147.44 418.071 147.186 416.626Z" fill="#3D2A56"/>
<path d="M138.08 386.615C136.283 386.597 134.749 386.068 133.476 385.028C132.166 383.988 131.172 382.567 130.493 380.763C129.779 378.922 129.433 376.81 129.457 374.427C129.471 373.034 129.596 371.587 129.831 370.086C130.066 368.585 130.41 367.25 130.862 366.081L128.442 366.056C126.022 366.032 124.09 366.728 122.645 368.143C121.201 369.559 120.466 371.531 120.441 374.061C120.425 375.601 120.703 377.126 121.274 378.635C121.81 380.107 122.619 381.655 123.703 383.28L121.048 384.683C119.784 382.8 118.849 380.957 118.244 379.154C117.602 377.351 117.291 375.514 117.31 373.645C117.345 370.125 118.381 367.348 120.419 365.316C122.456 363.283 125.253 362.284 128.809 362.32L142.064 362.454C142.577 362.459 142.963 362.353 143.222 362.135C143.444 361.918 143.576 361.571 143.618 361.094L146.587 361.124C146.62 361.528 146.653 361.877 146.687 362.17C146.721 362.464 146.718 362.684 146.68 362.83C146.634 363.747 146.334 364.44 145.779 364.911C145.224 365.382 144.635 365.633 144.011 365.663L141.921 365.697C143.558 366.997 144.824 368.679 145.72 370.741C146.58 372.803 146.998 374.897 146.977 377.024C146.959 378.857 146.557 380.522 145.772 382.017C144.95 383.476 143.875 384.62 142.547 385.45C141.182 386.243 139.693 386.631 138.08 386.615ZM140.473 367.443C139.964 367.034 139.472 366.718 138.998 366.493C138.523 366.268 138.103 366.154 137.736 366.15L133.556 366.108C133.067 367.35 132.687 368.648 132.417 370.002C132.147 371.319 132.005 372.656 131.992 374.013C131.965 376.689 132.474 378.858 133.521 380.518C134.568 382.179 136.008 383.019 137.841 383.037C138.904 383.048 139.915 382.783 140.874 382.243C141.796 381.702 142.574 380.903 143.208 379.846C143.806 378.789 144.112 377.545 144.126 376.115C144.144 374.319 143.813 372.647 143.132 371.1C142.451 369.516 141.565 368.297 140.473 367.443Z" fill="#3D2A56"/>
<path d="M150.409 332.066L149.896 335.77L134.042 333.575C130.701 333.112 128.2 333.265 126.538 334.035C124.841 334.799 123.846 336.234 123.554 338.341C123.353 339.794 123.518 341.279 124.048 342.796C124.542 344.308 125.331 345.694 126.415 346.955C127.467 348.174 128.742 349.128 130.238 349.816L147.617 352.223L147.104 355.928L118.72 351.997L119.188 348.619L125.617 349.51C124.342 348.556 123.282 347.391 122.436 346.015C121.554 344.634 120.93 343.123 120.565 341.481C120.201 339.838 120.134 338.182 120.365 336.511C120.581 334.949 121.056 333.664 121.788 332.655C122.52 331.646 123.476 330.89 124.656 330.387C125.8 329.879 127.154 329.585 128.72 329.506C130.25 329.422 131.94 329.508 133.793 329.765L150.409 332.066Z" fill="#3D2A56"/>
<path d="M137.503 324.06C134.891 323.324 132.658 322.123 130.804 320.458C128.924 318.747 127.599 316.755 126.831 314.481C126.062 312.207 126.02 309.853 126.707 307.418C127.353 305.124 128.547 303.251 130.29 301.799C132.007 300.302 133.874 299.285 135.892 298.749L119.057 294.006L120.072 290.406L154.376 300.072C154.87 300.211 155.27 300.209 155.577 300.067C155.849 299.915 156.062 299.632 156.216 299.219L159.075 300.024C158.982 300.76 158.863 301.317 158.718 301.695C158.474 302.426 157.99 302.995 157.267 303.4C156.543 303.806 155.846 303.914 155.175 303.725L152.475 302.965C153.967 304.566 154.978 306.451 155.51 308.62C156.042 310.788 156.024 312.879 155.458 314.89C154.921 316.796 154.035 318.451 152.801 319.856C151.577 321.225 150.126 322.321 148.447 323.143C146.777 323.93 145.001 324.42 143.118 324.613C141.21 324.761 139.338 324.577 137.503 324.06ZM148.227 302.225L139.703 299.823C138.304 299.924 136.948 300.342 135.636 301.077C134.289 301.802 133.131 302.733 132.163 303.87C131.17 304.961 130.494 306.142 130.136 307.413C129.719 308.895 129.659 310.326 129.956 311.705C130.218 313.074 130.754 314.348 131.564 315.529C132.384 316.674 133.4 317.665 134.612 318.502C135.824 319.339 137.135 319.956 138.547 320.354C140.029 320.772 141.511 320.922 142.991 320.806C144.481 320.655 145.89 320.251 147.217 319.597C148.509 318.932 149.612 318.062 150.524 316.986C151.437 315.91 152.097 314.648 152.505 313.201C152.764 312.284 152.856 311.281 152.781 310.193C152.707 309.106 152.494 308.036 152.142 306.985C151.766 305.888 151.238 304.921 150.56 304.082C149.882 303.243 149.104 302.624 148.227 302.225Z" fill="#3D2A56"/>
<path d="M152.802 277.558C150.384 276.327 148.428 274.713 146.934 272.718C145.424 270.674 144.514 268.461 144.204 266.081C143.894 263.701 144.313 261.384 145.461 259.129C146.543 257.006 148.08 255.402 150.072 254.318C152.048 253.185 154.078 252.552 156.161 252.42L140.576 244.482L142.274 241.15L174.032 257.324C174.489 257.557 174.882 257.634 175.211 257.555C175.507 257.458 175.771 257.223 176.003 256.847L178.65 258.195C178.415 258.898 178.19 259.422 177.974 259.764C177.592 260.434 177.006 260.897 176.217 261.153C175.428 261.41 174.723 261.38 174.103 261.064L171.603 259.791C172.754 261.652 173.378 263.699 173.476 265.929C173.574 268.16 173.149 270.207 172.201 272.069C171.302 273.834 170.111 275.284 168.626 276.421C167.159 277.525 165.521 278.317 163.714 278.795C161.923 279.241 160.086 279.375 158.201 279.197C156.301 278.97 154.501 278.424 152.802 277.558ZM167.581 258.236L159.69 254.217C158.298 254.043 156.886 254.188 155.456 254.653C153.993 255.101 152.676 255.789 151.505 256.715C150.318 257.591 149.425 258.618 148.826 259.794C148.127 261.166 147.789 262.558 147.811 263.968C147.801 265.362 148.078 266.717 148.642 268.033C149.223 269.316 150.026 270.486 151.051 271.543C152.076 272.601 153.242 273.462 154.549 274.128C155.921 274.826 157.345 275.263 158.819 275.438C160.311 275.581 161.771 275.46 163.2 275.077C164.597 274.678 165.848 274.039 166.953 273.162C168.059 272.285 168.952 271.176 169.635 269.837C170.067 268.987 170.353 268.022 170.492 266.94C170.632 265.859 170.631 264.769 170.492 263.669C170.337 262.52 170.008 261.468 169.507 260.513C169.006 259.558 168.364 258.799 167.581 258.236Z" fill="#3D2A56"/>
<path d="M189.086 244.027C187.911 245.71 186.504 247.053 184.865 248.055C183.196 249.037 181.438 249.665 179.591 249.941C177.714 250.195 175.829 250.109 173.936 249.682C172.064 249.225 170.286 248.408 168.602 247.233C166.408 245.7 164.74 243.798 163.598 241.525C162.478 239.223 161.996 236.807 162.152 234.277C162.278 231.727 163.128 229.324 164.703 227.07C166.319 224.755 168.281 223.129 170.59 222.192C172.92 221.225 175.348 220.885 177.875 221.173C180.371 221.441 182.702 222.33 184.867 223.841C185.107 224.009 185.348 224.177 185.588 224.345C185.799 224.492 185.953 224.623 186.053 224.737L172.01 244.85C173.799 245.875 175.627 246.458 177.496 246.6C179.355 246.691 181.117 246.378 182.78 245.661C184.434 244.893 185.786 243.757 186.836 242.254C187.906 240.721 188.523 239.005 188.686 237.106C188.87 235.178 188.519 233.502 187.634 232.079L190.213 229.922C190.99 231.18 191.483 232.62 191.692 234.241C191.901 235.863 191.789 237.529 191.356 239.239C190.913 240.897 190.157 242.493 189.086 244.027ZM169.738 243.397L181.859 226.035C180.062 224.959 178.233 224.375 176.374 224.284C174.535 224.163 172.804 224.497 171.18 225.286C169.547 226.024 168.195 227.16 167.124 228.693C166.054 230.227 165.454 231.887 165.324 233.674C165.163 235.441 165.462 237.192 166.218 238.927C166.965 240.611 168.138 242.101 169.738 243.397Z" fill="#3D2A56"/>
<path d="M203.914 224.301L174.835 213.803L177.443 210.896L202.525 220.248L190.555 196.281L193.016 193.538L206.595 221.312L203.914 224.301Z" fill="#3D2A56"/>
<path d="M226.631 202.581C225.081 203.928 223.39 204.889 221.556 205.462C219.699 206.008 217.841 206.191 215.982 206.009C214.1 205.799 212.292 205.257 210.56 204.382C208.855 203.484 207.329 202.26 205.982 200.71C204.226 198.69 203.071 196.439 202.516 193.957C201.99 191.451 202.109 188.991 202.876 186.575C203.618 184.132 205.027 182.008 207.103 180.204C209.233 178.351 211.532 177.251 214 176.904C216.495 176.532 218.932 176.794 221.313 177.688C223.67 178.554 225.714 179.983 227.446 181.976C227.639 182.197 227.831 182.418 228.024 182.64C228.192 182.833 228.311 182.998 228.379 183.132L209.867 199.227C211.353 200.656 212.985 201.667 214.763 202.259C216.544 202.799 218.329 202.924 220.117 202.633C221.908 202.29 223.495 201.517 224.879 200.314C226.29 199.087 227.306 197.573 227.925 195.771C228.573 193.945 228.64 192.234 228.128 190.639L231.154 189.174C231.601 190.583 231.729 192.099 231.538 193.723C231.347 195.347 230.833 196.936 229.997 198.489C229.164 199.99 228.042 201.354 226.631 202.581ZM208.016 197.265L223.996 183.372C222.514 181.891 220.882 180.88 219.101 180.34C217.347 179.776 215.586 179.679 213.819 180.049C212.055 180.368 210.468 181.141 209.057 182.368C207.645 183.594 206.659 185.059 206.099 186.761C205.514 188.436 205.377 190.207 205.689 192.074C206.004 193.889 206.78 195.62 208.016 197.265Z" fill="#3D2A56"/>
<path d="M216.278 158.793L219.316 156.611L238.955 183.948C239.789 185.109 240.543 185.719 241.217 185.776C241.891 185.834 242.525 185.649 243.121 185.221C243.657 184.836 244.15 184.392 244.6 183.887C245.051 183.383 245.427 182.933 245.728 182.535L248.029 184.607C247.635 185.252 247.074 185.948 246.347 186.696C245.65 187.422 245.004 188 244.408 188.427C243.038 189.412 241.648 189.801 240.236 189.596C238.855 189.37 237.661 188.557 236.656 187.157L216.278 158.793Z" fill="#3D2A56"/>
<path d="M261.29 177.894C259.516 178.927 257.674 179.554 255.766 179.775C253.871 179.946 252.027 179.768 250.236 179.241C248.457 178.665 246.824 177.792 245.336 176.622C243.829 175.42 242.578 173.964 241.581 172.253C240.548 170.479 239.889 168.656 239.605 166.784C239.302 164.881 239.364 163.021 239.79 161.202C240.198 159.352 240.952 157.661 242.054 156.128C243.168 154.545 244.613 153.237 246.387 152.203C248.161 151.17 249.996 150.568 251.891 150.397C253.768 150.195 255.611 150.373 257.421 150.931C259.213 151.457 260.862 152.321 262.369 153.523C263.857 154.693 265.117 156.165 266.151 157.939C267.148 159.65 267.797 161.457 268.1 163.36C268.384 165.232 268.322 167.092 267.914 168.942C267.52 170.742 266.766 172.434 265.651 174.016C264.549 175.549 263.096 176.842 261.29 177.894ZM244.888 170.39C245.959 172.228 247.333 173.676 249.011 174.735C250.702 175.745 252.487 176.296 254.366 176.389C256.227 176.451 257.981 176.002 259.629 175.042C261.276 174.083 262.523 172.762 263.368 171.082C264.214 169.401 264.605 167.56 264.543 165.559C264.463 163.527 263.896 161.608 262.844 159.802C261.774 157.965 260.384 156.525 258.674 155.484C256.964 154.444 255.17 153.876 253.291 153.783C251.411 153.689 249.648 154.123 248.001 155.082C246.353 156.042 245.116 157.378 244.289 159.091C243.493 160.785 243.127 162.632 243.189 164.633C243.233 166.602 243.799 168.521 244.888 170.39Z" fill="#3D2A56"/>
<path d="M290.344 163.625C288.146 164.545 285.926 164.798 283.686 164.384C281.48 163.955 279.516 163.108 277.793 161.841L284.608 178.128L281.158 179.572L265.575 142.331L268.67 141.036L270.814 146.16C271.169 144.064 272.014 142.14 273.348 140.39C274.668 138.605 276.326 137.295 278.322 136.46C280.148 135.696 281.985 135.384 283.833 135.525C285.666 135.633 287.41 136.095 289.064 136.914C290.718 137.732 292.197 138.842 293.499 140.245C294.821 141.6 295.85 143.156 296.586 144.915C297.619 147.384 298.067 149.88 297.93 152.402C297.812 154.875 297.119 157.113 295.85 159.115C294.581 161.116 292.746 162.62 290.344 163.625ZM288.106 160.984C289.561 160.375 290.743 159.543 291.652 158.487C292.548 157.396 293.189 156.174 293.576 154.82C293.997 153.451 294.165 152.049 294.082 150.614C293.983 149.144 293.651 147.733 293.085 146.38C292.491 144.96 291.671 143.713 290.626 142.64C289.614 141.552 288.447 140.709 287.123 140.111C285.799 139.512 284.425 139.173 283.001 139.093C281.576 139.013 280.17 139.264 278.784 139.844C277.904 140.212 277.062 140.763 276.256 141.498C275.451 142.232 274.743 143.105 274.132 144.116C273.541 145.078 273.121 146.069 272.872 147.088C272.622 148.106 272.614 149.084 272.846 150.02L276.243 158.138C277.308 159.163 278.51 159.991 279.847 160.624C281.171 161.223 282.552 161.579 283.991 161.692C285.449 161.758 286.821 161.522 288.106 160.984Z" fill="#3D2A56"/>
<path d="M306.553 157.16L297.935 129.832L301.502 128.707L310.119 156.035L306.553 157.16ZM296.132 124.114L294.478 118.869L298.045 117.744L299.699 122.989L296.132 124.114Z" fill="#3D2A56"/>
<path d="M340.793 148.603L337.138 149.399L333.732 133.761C333.014 130.465 332.008 128.17 330.713 126.876C329.41 125.546 327.719 125.107 325.641 125.56C324.208 125.872 322.871 126.539 321.63 127.559C320.381 128.544 319.352 129.763 318.542 131.215C317.761 132.624 317.305 134.149 317.175 135.791L320.909 152.934L317.254 153.73L311.156 125.732L314.488 125.006L315.869 131.347C316.325 129.822 317.053 128.425 318.052 127.157C319.044 125.852 320.248 124.746 321.664 123.837C323.079 122.928 324.611 122.294 326.259 121.935C327.8 121.6 329.17 121.602 330.369 121.941C331.569 122.28 332.608 122.917 333.487 123.851C334.359 124.749 335.101 125.92 335.716 127.362C336.322 128.769 336.825 130.385 337.222 132.213L340.793 148.603Z" fill="#3D2A56"/>
<path d="M357.763 147.278C355.826 147.431 354.003 147.17 352.295 146.496C350.586 145.822 349.076 144.856 347.762 143.599C346.483 142.302 345.445 140.803 344.648 139.1C343.852 137.398 343.38 135.614 343.233 133.75C343.074 131.74 343.236 129.833 343.719 128.029C344.235 126.186 345.023 124.524 346.083 123.042C347.18 121.558 348.502 120.369 350.05 119.474C351.594 118.543 353.354 117.999 355.328 117.843C357.777 117.65 359.946 118.104 361.835 119.205C363.761 120.303 365.417 121.717 366.805 123.447L366.332 117.47L369.677 117.206L371.942 145.882C372.15 148.514 371.685 150.776 370.547 152.668C369.449 154.594 367.858 156.099 365.773 157.183C363.725 158.264 361.44 158.904 358.918 159.104C355.665 159.361 352.987 158.984 350.884 157.973C348.781 156.962 347.012 155.52 345.577 153.647L347.737 151.656C349.011 153.358 350.616 154.573 352.549 155.303C354.519 156.03 356.564 156.31 358.684 156.143C360.548 155.996 362.221 155.514 363.701 154.698C365.221 153.916 366.384 152.813 367.191 151.388C368.035 149.961 368.376 148.223 368.214 146.176L367.768 140.529C366.813 142.407 365.428 143.969 363.614 145.216C361.797 146.426 359.847 147.113 357.763 147.278ZM358.558 144.07C359.691 143.981 360.754 143.695 361.745 143.212C362.774 142.726 363.7 142.119 364.526 141.392C365.348 140.628 366.019 139.803 366.537 138.916C367.055 138.029 367.353 137.141 367.43 136.252L366.733 127.425C366.075 126.079 365.192 124.917 364.085 123.937C362.975 122.922 361.739 122.173 360.376 121.693C359.048 121.172 357.689 120.967 356.3 121.077C354.692 121.204 353.276 121.665 352.051 122.461C350.86 123.217 349.871 124.196 349.083 125.398C348.329 126.561 347.769 127.856 347.404 129.283C347.038 130.709 346.911 132.117 347.02 133.506C347.142 135.041 347.531 136.482 348.189 137.827C348.844 139.137 349.69 140.302 350.727 141.323C351.798 142.305 352.996 143.038 354.322 143.522C355.684 144.003 357.096 144.186 358.558 144.07Z" fill="#3D2A56"/>
<path d="M403.581 148.149C401.504 147.925 399.631 147.335 397.964 146.381C396.337 145.394 394.942 144.137 393.779 142.611C392.652 141.088 391.821 139.394 391.284 137.529C390.784 135.668 390.643 133.735 390.859 131.73C391.15 129.032 392.017 126.636 393.46 124.542C394.902 122.448 396.77 120.861 399.062 119.78C401.355 118.7 403.905 118.311 406.712 118.614C409.373 118.901 411.657 119.774 413.565 121.234C415.477 122.657 416.813 124.461 417.573 126.645L413.84 127.404C413.195 125.859 412.187 124.607 410.815 123.648C409.484 122.656 407.944 122.066 406.194 121.877C404.298 121.673 402.513 121.978 400.84 122.793C399.166 123.609 397.763 124.822 396.63 126.433C395.534 128.048 394.868 129.949 394.632 132.137C394.4 134.287 394.663 136.289 395.423 138.141C396.182 139.993 397.288 141.532 398.742 142.759C400.199 143.948 401.876 144.646 403.771 144.85C405.011 144.984 406.219 144.893 407.396 144.577C408.61 144.265 409.676 143.79 410.593 143.152C411.55 142.48 412.222 141.723 412.608 140.88L416.154 142.368C415.498 143.662 414.51 144.791 413.189 145.755C411.908 146.686 410.432 147.375 408.761 147.822C407.131 148.236 405.404 148.345 403.581 148.149Z" fill="#3D2A56"/>
<path d="M426.554 110.472L430.221 111.209L423.59 144.209C423.308 145.611 423.376 146.578 423.792 147.111C424.209 147.643 424.777 147.982 425.496 148.126C426.143 148.256 426.804 148.314 427.48 148.301C428.156 148.287 428.742 148.255 429.239 148.205L429.29 151.301C428.549 151.451 427.657 151.515 426.615 151.493C425.608 151.477 424.745 151.398 424.026 151.253C422.372 150.921 421.14 150.168 420.328 148.995C419.553 147.83 419.335 146.402 419.674 144.713L426.554 110.472Z" fill="#3D2A56"/>
<path d="M443.277 156.406C441.309 155.819 439.592 154.905 438.126 153.664C436.67 152.387 435.521 150.916 434.679 149.249C433.848 147.547 433.338 145.73 433.149 143.799C432.995 141.878 433.211 139.934 433.799 137.966C434.564 135.401 435.846 133.22 437.645 131.423C439.479 129.636 441.622 128.419 444.072 127.773C446.533 127.091 449.081 127.144 451.716 127.93C454.422 128.737 456.582 130.09 458.197 131.988C459.847 133.896 460.932 136.094 461.452 138.584C461.982 141.038 461.87 143.53 461.115 146.06C461.031 146.341 460.947 146.622 460.863 146.903C460.79 147.149 460.715 147.337 460.638 147.467L437.132 140.453C436.72 142.473 436.741 144.392 437.193 146.211C437.691 148.005 438.541 149.578 439.744 150.932C440.993 152.262 442.496 153.188 444.253 153.713C446.045 154.247 447.867 154.294 449.721 153.852C451.61 153.421 453.091 152.562 454.163 151.275L457.021 153.046C456.071 154.178 454.859 155.098 453.385 155.806C451.911 156.514 450.295 156.931 448.535 157.057C446.821 157.158 445.069 156.941 443.277 156.406ZM437.797 137.839L458.088 143.894C458.545 141.849 458.524 139.93 458.027 138.136C457.564 136.352 456.703 134.813 455.444 133.519C454.23 132.201 452.727 131.274 450.935 130.739C449.144 130.205 447.379 130.156 445.641 130.594C443.914 130.997 442.345 131.83 440.935 133.093C439.571 134.331 438.525 135.913 437.797 137.839Z" fill="#3D2A56"/>
<path d="M461.6 152.981C462.328 151.338 463.421 150.138 464.879 149.381C466.353 148.59 468.052 148.239 469.977 148.33C471.95 148.402 474.026 148.921 476.205 149.886C477.479 150.451 478.759 151.138 480.044 151.948C481.33 152.758 482.42 153.602 483.314 154.479L484.294 152.267C485.274 150.054 485.4 148.005 484.672 146.118C483.944 144.231 482.423 142.776 480.11 141.751C478.702 141.127 477.192 140.779 475.58 140.706C474.016 140.615 472.274 140.746 470.353 141.098L470.115 138.105C472.345 137.689 474.407 137.56 476.302 137.718C478.212 137.842 480.022 138.283 481.732 139.04C484.95 140.466 487.09 142.517 488.15 145.192C489.211 147.868 489.021 150.832 487.58 154.084L482.211 166.202C482.003 166.672 481.948 167.068 482.045 167.392C482.157 167.682 482.424 167.941 482.845 168.167L481.642 170.883C481.258 170.753 480.925 170.645 480.642 170.56C480.358 170.475 480.157 170.386 480.038 170.293C479.215 169.888 478.697 169.338 478.484 168.642C478.271 167.946 478.274 167.305 478.493 166.721L479.289 164.788C477.447 165.776 475.402 166.274 473.153 166.28C470.92 166.253 468.83 165.809 466.886 164.948C465.21 164.205 463.84 163.177 462.778 161.864C461.764 160.533 461.138 159.093 460.902 157.544C460.714 155.977 460.947 154.456 461.6 152.981ZM478.259 162.767C478.836 162.461 479.321 162.135 479.715 161.788C480.109 161.441 480.381 161.101 480.529 160.765L482.222 156.944C481.276 156.003 480.234 155.14 479.098 154.356C477.995 153.587 476.823 152.927 475.583 152.378C473.135 151.294 470.942 150.903 469.003 151.207C467.064 151.511 465.723 152.501 464.98 154.177C464.549 155.15 464.392 156.183 464.509 157.277C464.641 158.338 465.066 159.369 465.786 160.37C466.521 161.337 467.542 162.11 468.849 162.689C470.492 163.417 472.158 163.774 473.848 163.761C475.572 163.763 477.042 163.431 478.259 162.767Z" fill="#3D2A56"/>
<path d="M507.388 186.093L504.189 184.156L512.476 170.464C514.223 167.578 515.071 165.22 515.022 163.39C514.991 161.529 514.066 160.047 512.247 158.946C510.992 158.187 509.563 157.75 507.96 157.637C506.376 157.493 504.791 157.669 503.204 158.166C501.668 158.651 500.288 159.444 499.063 160.546L489.979 175.556L486.779 173.619L501.617 149.105L504.534 150.87L501.173 156.423C502.553 155.629 504.043 155.116 505.641 154.884C507.258 154.619 508.893 154.645 510.545 154.959C512.198 155.274 513.746 155.867 515.189 156.741C516.538 157.557 517.531 158.501 518.168 159.573C518.805 160.644 519.121 161.821 519.116 163.104C519.13 164.355 518.864 165.716 518.318 167.185C517.79 168.623 517.042 170.142 516.074 171.742L507.388 186.093Z" fill="#3D2A56"/>
<path d="M510.541 194.186L514.038 191.026L513.021 190.274L516.125 186.071L519.045 188.228L515.94 192.431L512.089 195.33L510.541 194.186Z" fill="#3D2A56"/>
<path d="M558.808 196.329C556.946 194.668 554.869 193.663 552.577 193.311C550.312 192.985 548.105 193.396 545.959 194.545L533.712 207.49L530.995 204.92L550.688 184.104L553.245 186.523L548.52 191.517C550.625 190.733 552.692 190.442 554.721 190.645C556.776 190.873 558.52 191.564 559.953 192.718C560.244 192.943 560.483 193.144 560.67 193.32C560.883 193.522 561.044 193.699 561.152 193.852L558.808 196.329Z" fill="#3D2A56"/>
<path d="M551.397 226.659C550.056 225.104 549.101 223.409 548.535 221.573C547.995 219.714 547.82 217.855 548.009 215.997C548.225 214.115 548.774 212.31 549.655 210.581C550.561 208.88 551.79 207.358 553.345 206.017C555.371 204.268 557.627 203.121 560.11 202.576C562.618 202.059 565.079 202.188 567.491 202.963C569.932 203.715 572.05 205.132 573.847 207.214C575.691 209.351 576.783 211.654 577.121 214.123C577.483 216.619 577.213 219.056 576.31 221.434C575.435 223.787 573.998 225.826 571.999 227.551C571.777 227.742 571.555 227.934 571.333 228.126C571.139 228.293 570.974 228.411 570.839 228.479L554.813 209.908C553.379 211.388 552.362 213.016 551.763 214.792C551.216 216.571 551.085 218.355 551.369 220.144C551.705 221.937 552.472 223.527 553.67 224.915C554.892 226.331 556.402 227.352 558.202 227.978C560.026 228.632 561.736 228.706 563.333 228.2L564.787 231.232C563.377 231.674 561.86 231.796 560.237 231.599C558.613 231.401 557.027 230.881 555.477 230.039C553.979 229.201 552.619 228.074 551.397 226.659ZM556.782 208.064L570.616 224.095C572.102 222.619 573.119 220.991 573.666 219.211C574.237 217.459 574.34 215.699 573.976 213.931C573.664 212.166 572.897 210.576 571.676 209.16C570.454 207.744 568.993 206.753 567.293 206.186C565.621 205.595 563.851 205.451 561.982 205.756C560.166 206.064 558.432 206.833 556.782 208.064Z" fill="#3D2A56"/>
<path d="M568.236 248.869C566.931 246.919 566.038 244.892 565.556 242.788C565.074 240.684 565.08 238.584 565.575 236.488L568.625 236.299C568.273 238.476 568.256 240.429 568.575 242.157C568.944 243.895 569.639 245.526 570.658 247.05C571.903 248.908 573.278 250.172 574.784 250.84C576.321 251.488 577.79 251.343 579.192 250.405C580.136 249.773 580.659 249.004 580.759 248.099C580.91 247.204 580.781 246.121 580.371 244.85C580.013 243.59 579.527 242.106 578.914 240.399C578.27 238.447 577.814 236.745 577.547 235.291C577.331 233.847 577.41 232.581 577.784 231.492C578.209 230.414 579.046 229.456 580.296 228.62C581.85 227.58 583.385 227.104 584.9 227.193C586.466 227.292 587.957 227.838 589.372 228.832C590.839 229.836 592.133 231.176 593.254 232.852C594.478 234.68 595.27 236.489 595.629 238.278C595.988 240.067 595.945 241.75 595.501 243.328L592.389 243.226C592.793 241.721 592.826 240.221 592.487 238.726C592.2 237.242 591.577 235.784 590.618 234.352C589.966 233.377 589.206 232.539 588.341 231.839C587.505 231.118 586.589 230.673 585.592 230.502C584.646 230.341 583.655 230.607 582.619 231.3C581.766 231.871 581.239 232.533 581.037 233.286C580.865 234.019 580.897 234.924 581.133 236.001C581.399 237.059 581.768 238.334 582.238 239.828C582.954 241.952 583.502 243.858 583.881 245.546C584.291 247.213 584.345 248.677 584.042 249.938C583.739 251.2 582.872 252.31 581.439 253.269C579.215 254.758 576.917 255.082 574.546 254.242C572.175 253.403 570.072 251.612 568.236 248.869Z" fill="#3D2A56"/>
<path d="M582.792 273.993C581.714 271.867 581.301 269.672 581.551 267.407C581.817 265.176 582.52 263.155 583.658 261.345L567.91 269.326L566.219 265.99L602.228 247.74L603.745 250.733L598.79 253.244C600.907 253.446 602.886 254.148 604.729 255.352C606.605 256.539 608.032 258.097 609.01 260.026C609.905 261.793 610.35 263.602 610.343 265.455C610.37 267.292 610.035 269.064 609.339 270.774C608.643 272.483 607.643 274.038 606.339 275.439C605.084 276.856 603.606 277.995 601.906 278.857C599.518 280.067 597.062 280.696 594.537 280.742C592.061 280.805 589.779 280.276 587.69 279.156C585.602 278.036 583.969 276.315 582.792 273.993ZM585.263 271.569C585.976 272.975 586.892 274.093 588.012 274.924C589.164 275.737 590.429 276.288 591.808 276.576C593.204 276.896 594.615 276.962 596.04 276.774C597.499 276.569 598.882 276.135 600.19 275.472C601.564 274.776 602.748 273.868 603.742 272.747C604.753 271.659 605.508 270.434 606.009 269.07C606.51 267.706 606.749 266.311 606.724 264.885C606.7 263.458 606.348 262.074 605.669 260.733C605.238 259.883 604.627 259.083 603.836 258.333C603.044 257.583 602.123 256.94 601.07 256.405C600.067 255.885 599.049 255.538 598.015 255.364C596.98 255.189 596.005 255.252 595.088 255.552L587.239 259.53C586.294 260.667 585.555 261.925 585.021 263.305C584.52 264.669 584.266 266.073 584.257 267.516C584.298 268.975 584.633 270.326 585.263 271.569Z" fill="#3D2A56"/>
<path d="M593.778 299.91C593.096 297.973 592.827 296.047 592.97 294.131C593.159 292.238 593.68 290.461 594.535 288.8C595.435 287.162 596.6 285.722 598.03 284.481C599.493 283.227 601.159 282.272 603.027 281.615C604.964 280.934 606.878 280.63 608.77 280.704C610.696 280.765 612.512 281.176 614.217 281.936C615.957 282.685 617.477 283.744 618.775 285.114C620.12 286.507 621.133 288.172 621.814 290.109C622.495 292.046 622.741 293.961 622.552 295.854C622.397 297.736 621.875 299.513 620.987 301.186C620.133 302.846 618.974 304.303 617.51 305.557C616.081 306.798 614.398 307.759 612.461 308.44C610.593 309.097 608.696 309.395 606.77 309.334C604.878 309.26 603.062 308.849 601.322 308.101C599.629 307.375 598.11 306.316 596.765 304.923C595.467 303.553 594.471 301.882 593.778 299.91ZM604.234 285.214C602.228 285.919 600.547 286.996 599.191 288.445C597.881 289.916 597.004 291.566 596.558 293.394C596.147 295.209 596.258 297.017 596.891 298.815C597.523 300.614 598.585 302.087 600.077 303.234C601.569 304.38 603.303 305.111 605.279 305.427C607.29 305.73 609.282 305.535 611.253 304.842C613.26 304.136 614.935 303.042 616.279 301.559C617.623 300.075 618.518 298.42 618.963 296.592C619.409 294.764 619.315 292.95 618.682 291.152C618.05 289.353 616.971 287.886 615.444 286.752C613.93 285.652 612.185 284.944 610.208 284.629C608.266 284.301 606.275 284.496 604.234 285.214Z" fill="#3D2A56"/>
<path d="M605.357 342.622L604.601 338.959L620.276 335.724C623.58 335.042 625.886 334.061 627.194 332.78C628.538 331.492 628.995 329.807 628.565 327.724C628.269 326.287 627.617 324.943 626.61 323.691C625.638 322.431 624.431 321.389 622.988 320.563C621.588 319.766 620.068 319.294 618.427 319.146L601.244 322.692L600.488 319.029L628.552 313.238L629.241 316.577L622.885 317.889C624.405 318.361 625.794 319.104 627.052 320.118C628.345 321.124 629.438 322.34 630.331 323.765C631.225 325.191 631.842 326.729 632.183 328.381C632.501 329.925 632.484 331.295 632.132 332.491C631.78 333.687 631.132 334.719 630.188 335.588C629.28 336.449 628.102 337.179 626.653 337.778C625.24 338.369 623.617 338.854 621.786 339.231L605.357 342.622Z" fill="#3D2A56"/>
<path d="M606.153 356.958C605.951 354.62 606.147 352.413 606.74 350.338C607.334 348.262 608.353 346.426 609.797 344.829L612.56 346.136C611.201 347.873 610.244 349.575 609.689 351.242C609.174 352.943 608.995 354.707 609.153 356.533C609.345 358.762 609.94 360.532 610.937 361.844C611.97 363.154 613.327 363.736 615.007 363.59C616.14 363.493 616.968 363.071 617.493 362.327C618.057 361.615 618.466 360.605 618.721 359.295C619.016 358.018 619.306 356.484 619.593 354.693C619.971 352.673 620.393 350.961 620.861 349.559C621.368 348.191 622.049 347.12 622.902 346.347C623.795 345.607 624.99 345.172 626.488 345.043C628.351 344.882 629.925 345.206 631.209 346.015C632.533 346.858 633.575 348.056 634.335 349.609C635.135 351.196 635.621 352.995 635.795 355.004C635.984 357.196 635.805 359.162 635.256 360.902C634.707 362.642 633.857 364.096 632.707 365.263L630.03 363.672C631.111 362.548 631.863 361.25 632.288 359.778C632.753 358.34 632.911 356.762 632.762 355.045C632.661 353.876 632.401 352.776 631.98 351.745C631.596 350.711 631.009 349.878 630.219 349.247C629.468 348.65 628.471 348.405 627.229 348.512C626.206 348.601 625.425 348.926 624.885 349.488C624.381 350.046 623.972 350.855 623.659 351.912C623.382 352.967 623.089 354.262 622.78 355.797C622.382 358.003 621.942 359.936 621.459 361.597C621.014 363.255 620.354 364.564 619.48 365.522C618.606 366.481 617.311 367.035 615.594 367.183C612.927 367.414 610.758 366.589 609.086 364.709C607.415 362.83 606.437 360.246 606.153 356.958Z" fill="#3D2A56"/>
<path d="M607.534 372.301L636.188 372.057L636.22 375.797L607.566 376.04L607.534 372.301ZM642.183 372.006L647.683 371.959L647.715 375.699L642.215 375.746L642.183 372.006Z" fill="#3D2A56"/>
<path d="M607.165 390.634L636.596 381.168L636.309 385.062L610.741 392.993L634.864 404.644L634.593 408.319L606.87 394.638L607.165 390.634Z" fill="#3D2A56"/>
<path d="M602.74 420.768C603.137 418.754 603.883 416.957 604.978 415.379C606.11 413.808 607.465 412.524 609.044 411.528C610.66 410.538 612.419 409.857 614.324 409.484C616.221 409.148 618.177 409.178 620.192 409.575C622.818 410.092 625.112 411.161 627.072 412.78C629.026 414.436 630.441 416.452 631.318 418.83C632.231 421.215 632.422 423.756 631.89 426.454C631.345 429.224 630.205 431.503 628.47 433.292C626.727 435.116 624.642 436.406 622.214 437.161C619.822 437.923 617.33 438.049 614.74 437.539C614.452 437.482 614.164 437.425 613.877 437.369C613.625 437.319 613.43 437.262 613.294 437.198L618.034 413.13C615.984 412.913 614.076 413.116 612.308 413.74C610.57 414.407 609.085 415.403 607.852 416.73C606.647 418.1 605.868 419.684 605.514 421.483C605.153 423.318 605.28 425.137 605.897 426.94C606.506 428.779 607.502 430.171 608.886 431.116L607.395 434.13C606.178 433.292 605.146 432.173 604.301 430.774C603.455 429.374 602.886 427.804 602.593 426.065C602.33 424.369 602.378 422.603 602.74 420.768ZM620.7 413.543L616.607 434.319C618.686 434.579 620.595 434.376 622.333 433.709C624.064 433.078 625.514 432.074 626.682 430.698C627.879 429.364 628.658 427.779 629.02 425.945C629.381 424.11 629.261 422.349 628.659 420.66C628.093 418.979 627.115 417.497 625.723 416.214C624.36 414.974 622.686 414.084 620.7 413.543Z" fill="#3D2A56"/>
<path d="M608.543 494.247L607.09 497.633L585.618 475.009L586.898 472.027L602.352 472.137L591.605 461.06L592.885 458.078L624.076 458.06L622.645 461.395L595.729 461.214L605.523 471.164L618.299 471.381L616.975 474.464L607.002 474.133L614.09 481.186L612.788 484.218L603.809 475.157L589.85 474.911L608.543 494.247Z" fill="#3D2A56"/>
<path d="M570.92 500.273C572.016 498.537 573.36 497.131 574.951 496.054C576.573 494.997 578.301 494.289 580.133 493.928C581.996 493.588 583.883 493.587 585.794 493.927C587.685 494.298 589.498 495.031 591.234 496.128C593.497 497.558 595.251 499.382 596.495 501.599C597.72 503.848 598.313 506.239 598.274 508.773C598.265 511.327 597.526 513.766 596.057 516.091C594.549 518.477 592.664 520.192 590.4 521.234C588.117 522.307 585.707 522.758 583.17 522.586C580.664 522.434 578.295 521.653 576.063 520.243C575.815 520.086 575.567 519.93 575.319 519.773C575.102 519.636 574.942 519.513 574.837 519.403L587.94 498.666C586.106 497.724 584.252 497.225 582.379 497.169C580.518 497.164 578.772 497.558 577.144 498.35C575.527 499.194 574.229 500.39 573.249 501.94C572.251 503.521 571.713 505.264 571.638 507.168C571.543 509.103 571.97 510.761 572.92 512.141L570.442 514.414C569.609 513.194 569.05 511.778 568.767 510.168C568.483 508.557 568.518 506.888 568.873 505.16C569.239 503.483 569.921 501.854 570.92 500.273ZM590.277 500.012L578.966 517.913C580.812 518.906 582.665 519.405 584.527 519.41C586.369 519.446 588.083 519.033 589.669 518.17C591.267 517.358 592.565 516.161 593.564 514.58C594.562 512.999 595.086 511.313 595.133 509.521C595.212 507.749 594.834 506.014 593.999 504.315C593.175 502.667 591.934 501.233 590.277 500.012Z" fill="#3D2A56"/>
<path d="M552.666 525.124C554.102 523.409 555.868 522.186 557.964 521.454C560.088 520.746 562.165 520.549 564.197 520.864L559.939 517.297L562.093 514.725L592.874 540.503L590.473 543.371L577.064 532.141C577.73 534.373 577.936 536.554 577.682 538.685C577.456 540.839 576.578 542.83 575.048 544.657C573.753 546.203 572.276 547.31 570.617 547.977C568.935 548.672 567.18 548.997 565.354 548.95C563.556 548.927 561.78 548.563 560.026 547.86C558.3 547.179 556.72 546.239 555.287 545.038C553.741 543.744 552.517 542.264 551.614 540.6C550.689 538.964 550.092 537.221 549.824 535.37C549.585 533.544 549.685 531.739 550.126 529.956C550.572 528.224 551.419 526.614 552.666 525.124ZM555.761 526.568C554.772 527.749 554.093 529.045 553.724 530.457C553.354 531.87 553.285 533.294 553.516 534.731C553.747 536.169 554.218 537.52 554.929 538.784C555.667 540.072 556.599 541.187 557.723 542.129C559.269 543.424 561 544.299 562.914 544.754C564.833 545.261 566.694 545.266 568.498 544.768C570.307 544.321 571.87 543.311 573.189 541.737C574.13 540.613 574.76 539.347 575.078 537.939C575.372 536.559 575.416 535.137 575.208 533.672C575.005 532.258 574.612 530.9 574.028 529.599L567.197 523.878C566.344 523.355 565.38 523.049 564.305 522.962C563.258 522.899 562.202 523.018 561.135 523.321C560.045 523.651 559.03 524.093 558.09 524.644C557.15 525.196 556.373 525.837 555.761 526.568Z" fill="#3D2A56"/>
<path d="M534.64 544.143C536.352 542.538 538.207 541.327 540.205 540.51C542.203 539.693 544.276 539.358 546.425 539.505L547.106 542.485C544.901 542.491 542.972 542.792 541.318 543.387C539.663 544.033 538.167 544.984 536.829 546.237C535.197 547.767 534.174 549.329 533.759 550.924C533.369 552.546 533.751 553.972 534.904 555.202C535.682 556.032 536.525 556.422 537.434 556.374C538.342 556.377 539.39 556.074 540.577 555.464C541.762 554.906 543.147 554.185 544.732 553.303C546.553 552.35 548.159 551.624 549.55 551.124C550.94 550.676 552.202 550.549 553.337 550.741C554.471 550.985 555.551 551.656 556.579 552.753C557.858 554.117 558.577 555.554 558.735 557.064C558.892 558.626 558.595 560.185 557.845 561.743C557.092 563.353 555.98 564.848 554.509 566.227C552.903 567.731 551.247 568.806 549.54 569.451C547.833 570.096 546.165 570.328 544.537 570.145L544.131 567.058C545.683 567.212 547.168 567.001 548.588 566.424C550.005 565.899 551.343 565.048 552.6 563.869C553.457 563.067 554.16 562.182 554.71 561.214C555.285 560.273 555.576 559.296 555.583 558.285C555.588 557.325 555.164 556.391 554.312 555.481C553.61 554.732 552.871 554.319 552.095 554.242C551.345 554.192 550.457 554.37 549.432 554.778C548.432 555.213 547.233 555.783 545.835 556.49C543.856 557.542 542.064 558.392 540.461 559.04C538.883 559.715 537.446 560.006 536.152 559.912C534.858 559.818 533.622 559.143 532.444 557.885C530.613 555.932 529.92 553.718 530.363 551.242C530.807 548.766 532.232 546.4 534.64 544.143Z" fill="#3D2A56"/>
<path d="M521.983 555.913L539.801 578.354L536.872 580.68L519.054 558.238L521.983 555.913ZM543.529 583.049L546.949 587.356L544.02 589.682L540.6 585.375L543.529 583.049Z" fill="#3D2A56"/>
<path d="M503.638 571.093C503.815 570.835 504.074 570.406 504.416 569.808C504.758 569.21 505.226 568.568 505.819 567.883C506.413 567.197 507.131 566.559 507.971 565.97C508.841 565.359 509.783 564.945 510.795 564.727C511.777 564.531 512.724 564.605 513.638 564.949C514.573 565.323 515.387 566.006 516.083 566.996L527.867 583.789L531.109 581.514L532.815 583.945L529.573 586.22L535.134 594.143L532.073 596.292L526.512 588.368L521.11 592.159L519.404 589.728L524.806 585.937L513.622 570C512.972 569.202 512.229 568.782 511.394 568.741C510.529 568.721 509.736 568.964 509.016 569.469C508.176 570.059 507.505 570.731 507.004 571.486C506.525 572.27 506.252 572.775 506.186 573.001L503.638 571.093Z" fill="#3D2A56"/>
<path d="M488.035 578.022C489.831 577.028 491.686 576.441 493.599 576.262C495.529 576.116 497.384 576.325 499.164 576.891C500.962 577.488 502.616 578.395 504.128 579.612C505.608 580.846 506.845 582.362 507.839 584.158C509.136 586.5 509.796 588.943 509.821 591.485C509.813 594.046 509.183 596.428 507.929 598.63C506.694 600.865 504.873 602.648 502.467 603.98C499.997 605.347 497.519 605.944 495.033 605.769C492.516 605.612 490.186 604.848 488.044 603.477C485.92 602.138 484.219 600.314 482.94 598.004C482.798 597.748 482.656 597.491 482.514 597.235C482.39 597.01 482.308 596.825 482.269 596.679L503.73 584.799C502.575 583.091 501.19 581.762 499.575 580.812C497.945 579.912 496.226 579.418 494.417 579.33C492.593 579.292 490.88 579.716 489.276 580.604C487.64 581.51 486.331 582.779 485.349 584.413C484.335 586.063 483.912 587.722 484.08 589.389L480.815 590.191C480.671 588.72 480.863 587.21 481.388 585.662C481.914 584.113 482.748 582.667 483.89 581.323C485.017 580.028 486.399 578.928 488.035 578.022ZM505.132 587.103L486.606 597.358C487.746 599.116 489.131 600.445 490.761 601.344C492.359 602.262 494.06 602.724 495.866 602.731C497.657 602.787 499.371 602.362 501.007 601.456C502.643 600.551 503.913 599.324 504.816 597.776C505.737 596.26 506.24 594.557 506.325 592.666C506.396 590.825 505.998 588.971 505.132 587.103Z" fill="#3D2A56"/>
<path d="M464.464 589.304C466.635 588.414 468.8 587.943 470.958 587.89C473.116 587.838 475.172 588.263 477.127 589.165L476.704 592.192C474.641 591.413 472.731 591.007 470.974 590.975C469.197 590.99 467.46 591.345 465.764 592.041C463.694 592.889 462.182 593.984 461.226 595.327C460.285 596.704 460.134 598.172 460.774 599.733C461.205 600.785 461.854 601.45 462.721 601.729C463.568 602.055 464.655 602.144 465.981 601.997C467.288 601.897 468.839 601.717 470.634 601.457C472.675 601.215 474.434 601.108 475.912 601.136C477.37 601.212 478.595 601.542 479.587 602.126C480.559 602.758 481.331 603.769 481.901 605.16C482.61 606.89 482.77 608.489 482.381 609.956C481.972 611.472 481.139 612.823 479.882 614.012C478.606 615.249 477.035 616.249 475.169 617.014C473.133 617.849 471.203 618.264 469.378 618.259C467.553 618.254 465.913 617.876 464.456 617.126L465.176 614.097C466.571 614.793 468.034 615.124 469.566 615.091C471.077 615.105 472.631 614.786 474.225 614.132C475.311 613.687 476.283 613.11 477.142 612.401C478.014 611.727 478.634 610.918 479 609.975C479.347 609.08 479.284 608.056 478.811 606.902C478.421 605.952 477.878 605.303 477.18 604.955C476.497 604.641 475.603 604.492 474.501 604.508C473.412 604.558 472.088 604.665 470.53 604.828C468.306 605.106 466.329 605.262 464.6 605.298C462.885 605.367 461.439 605.127 460.263 604.579C459.088 604.03 458.173 602.959 457.519 601.364C456.504 598.888 456.644 596.571 457.94 594.416C459.236 592.26 461.41 590.556 464.464 589.304Z" fill="#3D2A56"/>
<defs>
<linearGradient id="paint0_linear_652_542" x1="326.703" y1="392.488" x2="326.703" y2="489.381" gradientUnits="userSpaceOnUse">
<stop stop-color="#E4B363"/>
<stop offset="0.5" stop-color="#B785F5"/>
<stop offset="1" stop-color="#6D398D"/>
</linearGradient>
<linearGradient id="paint1_linear_652_542" x1="327.29" y1="297.282" x2="327.29" y2="376.761" gradientUnits="userSpaceOnUse">
<stop stop-color="#E4B363"/>
<stop offset="0.5" stop-color="#B785F5"/>
<stop offset="1" stop-color="#6D398D"/>
</linearGradient>
<linearGradient id="paint2_linear_652_542" x1="274.898" y1="267.092" x2="274.898" y2="306.234" gradientUnits="userSpaceOnUse">
<stop stop-color="#E4B363"/>
<stop offset="0.5" stop-color="#B785F5"/>
<stop offset="1" stop-color="#6D398D"/>
</linearGradient>
<linearGradient id="paint3_linear_652_542" x1="270.514" y1="425.57" x2="270.514" y2="446.899" gradientUnits="userSpaceOnUse">
<stop stop-color="#E4B363"/>
<stop offset="0.5" stop-color="#B785F5"/>
<stop offset="1" stop-color="#6D398D"/>
</linearGradient>
<linearGradient id="paint4_linear_652_542" x1="426.635" y1="392.489" x2="426.635" y2="489.383" gradientUnits="userSpaceOnUse">
<stop stop-color="#E4B363"/>
<stop offset="0.5" stop-color="#B785F5"/>
<stop offset="1" stop-color="#6D398D"/>
</linearGradient>
<linearGradient id="paint5_linear_652_542" x1="426.05" y1="297.283" x2="426.05" y2="376.759" gradientUnits="userSpaceOnUse">
<stop stop-color="#E4B363"/>
<stop offset="0.5" stop-color="#B785F5"/>
<stop offset="1" stop-color="#6D398D"/>
</linearGradient>
<linearGradient id="paint6_linear_652_542" x1="478.435" y1="267.09" x2="478.435" y2="306.233" gradientUnits="userSpaceOnUse">
<stop stop-color="#E4B363"/>
<stop offset="0.5" stop-color="#B785F5"/>
<stop offset="1" stop-color="#6D398D"/>
</linearGradient>
<linearGradient id="paint7_linear_652_542" x1="482.823" y1="425.574" x2="482.823" y2="446.903" gradientUnits="userSpaceOnUse">
<stop stop-color="#E4B363"/>
<stop offset="0.5" stop-color="#B785F5"/>
<stop offset="1" stop-color="#6D398D"/>
</linearGradient>
</defs>
</svg>
