<svg width="80" height="79" viewBox="0 0 80 79" fill="none" xmlns="http://www.w3.org/2000/svg">
<path fill-rule="evenodd" clip-rule="evenodd" d="M53 77.8401C68.7098 72.4442 80 57.5406 80 40C80 17.9086 62.0914 0 40 0C17.9086 0 0 17.9086 0 40C0 58.6384 12.7477 74.2994 30 78.7398V70H23.5C20.7 70.3999 18.5 66 18.5 66C18.5 66 15.3333 59.5 13.5 57H15C16 57 20.1667 60.5 22 62.5C24.8 63.7 29.5 63 31.5 62.5C31.5 59.4999 35.3913 56.4433 36 56.5C21.6 55.3 17 45.5 17 40C17 34.5 19.6666 31 21.5 29C19.5 24.2 21.5 17 21.5 17C21.5 17 29.5 18.4999 31.5 22C31.9 20.8 38.2089 20.0382 42 20C45.9824 19.9597 50.1666 21.3333 52 22C56.0977 17.9023 58.8521 17.4987 60.8137 17.2112C61.2456 17.1479 61.6391 17.0902 62 17C63.6 19 62.6667 26 62 29C65.2 32.6 66.6796 36.7484 66.5 41.5C66.1393 51.0451 53.6666 55.6667 47.5 56.5C50.7 58.9 52.5 63.5 53 65.5C53.5 67.5 53 77.5 53 77.5L53 77.8401Z" fill="#E4B363"/>
</svg>
