<svg width="86" height="43" viewBox="0 0 86 43" fill="none" xmlns="http://www.w3.org/2000/svg">
<g filter="url(#filter0_i_559_2588)">
<rect x="3" y="3" width="79.9999" height="36.3635" rx="18.1818" fill="url(#paint0_radial_559_2588)"/>
</g>
<rect x="1.5" y="1.5" width="82.9999" height="39.3635" rx="19.6818" stroke="#FACC15" stroke-width="3"/>
<path d="M82.0003 21.1818C82.0003 30.671 74.3078 38.3635 64.8185 38.3635C55.3293 38.3635 47.6367 30.671 47.6367 21.1818C47.6367 11.6925 55.3293 4 64.8185 4C74.3078 4 82.0003 11.6925 82.0003 21.1818Z" fill="url(#paint1_linear_559_2588)" stroke="#FACC15" stroke-width="2"/>
<path d="M70.6691 20.9889C70.6691 24.352 67.9428 27.0783 64.5797 27.0783C61.2166 27.0783 58.4903 24.352 58.4903 20.9889C58.4903 17.6259 61.2166 14.8995 64.5797 14.8995C67.9428 14.8995 70.6691 17.6259 70.6691 20.9889Z" fill="#FACC15" stroke="#FACC15" stroke-width="0.291095"/>
<path d="M72.9951 20.9891H77.5155" stroke="#FACC15" stroke-width="2" stroke-linecap="round"/>
<path d="M51.4854 20.9891H56.0057" stroke="#FACC15" stroke-width="2" stroke-linecap="round"/>
<path d="M70.8232 14.8242L74.0196 11.6279" stroke="#FACC15" stroke-width="2" stroke-linecap="round"/>
<path d="M55.2256 30.4203L58.422 27.224" stroke="#FACC15" stroke-width="2" stroke-linecap="round"/>
<path d="M55.2256 11.6367L58.422 14.833" stroke="#FACC15" stroke-width="2" stroke-linecap="round"/>
<path d="M70.8135 27.2241L74.0098 30.4205" stroke="#FACC15" stroke-width="2" stroke-linecap="round"/>
<path d="M64.627 12.3689V7.84853" stroke="#FACC15" stroke-width="2" stroke-linecap="round"/>
<path d="M64.5791 34.2384V29.718" stroke="#FACC15" stroke-width="2" stroke-linecap="round"/>
<defs>
<filter id="filter0_i_559_2588" x="0" y="0" width="89" height="45.3635" filterUnits="userSpaceOnUse" color-interpolation-filters="sRGB">
<feFlood flood-opacity="0" result="BackgroundImageFix"/>
<feBlend mode="normal" in="SourceGraphic" in2="BackgroundImageFix" result="shape"/>
<feColorMatrix in="SourceAlpha" type="matrix" values="0 0 0 0 0 0 0 0 0 0 0 0 0 0 0 0 0 0 127 0" result="hardAlpha"/>
<feOffset dx="3" dy="3"/>
<feGaussianBlur stdDeviation="1.5"/>
<feComposite in2="hardAlpha" operator="arithmetic" k2="-1" k3="1"/>
<feColorMatrix type="matrix" values="0 0 0 0 0 0 0 0 0 0 0 0 0 0 0 0 0 0 0.25 0"/>
<feBlend mode="normal" in2="shape" result="effect1_innerShadow_559_2588"/>
</filter>
<radialGradient id="paint0_radial_559_2588" cx="0" cy="0" r="1" gradientUnits="userSpaceOnUse" gradientTransform="translate(43 21.1818) rotate(90) scale(18.1818 40)">
<stop stop-color="#F8F5FF"/>
<stop offset="1" stop-color="#FACC15"/>
</radialGradient>
<linearGradient id="paint1_linear_559_2588" x1="58.2731" y1="3" x2="70.6366" y2="35.7272" gradientUnits="userSpaceOnUse">
<stop offset="1" stop-color="#F8F5FF"/>
</linearGradient>
</defs>
</svg>
