<svg width="80" height="81" viewBox="0 0 80 81" fill="none" xmlns="http://www.w3.org/2000/svg">
<path fill-rule="evenodd" clip-rule="evenodd" d="M80 40.7397C80 62.8311 62.0914 80.7397 40 80.7397C17.9086 80.7397 0 62.8311 0 40.7397C0 18.6484 17.9086 0.739746 40 0.739746C62.0914 0.739746 80 18.6484 80 40.7397ZM36.5 57.7398V30.7398H46V34.7398H47C47 31.9398 51.1805 30.7358 54.5 30.7398C59.4706 30.7458 63.5 34.7397 63.5 39.7398V57.7398H54V40.7398C54 39.7398 53.3 37.7398 50.5 37.7398C47.7 37.7398 46.5 39.7398 46.5 40.7398V57.7398H36.5ZM20 57.7398V30.7398H30V57.7398H20ZM24.5 27.7397C26.9853 27.7397 29 25.725 29 23.2397C29 20.7545 26.9853 18.7397 24.5 18.7397C22.0147 18.7397 20 20.7545 20 23.2397C20 25.725 22.0147 27.7397 24.5 27.7397Z" fill="#E4B363"/>
</svg>
